solid solid
 facet normal 0 0 1
  outer loop
   vertex 2.005 1.59 0.72
   vertex 1.77 1.69 0.72
   vertex 1.77 1.31 0.72
  endloop
 endfacet
 facet normal 0 0 1
  outer loop
   vertex 2.005 1.59 0.72
   vertex 1.77 1.31 0.72
   vertex 2.69 1.31 0.72
  endloop
 endfacet
 facet normal 0 0 1
  outer loop
   vertex 2.455 1.59 0.72
   vertex 2.005 1.59 0.72
   vertex 2.69 1.31 0.72
  endloop
 endfacet
 facet normal 0 0 1
  outer loop
   vertex 2.69 1.69 0.72
   vertex 2.455 1.59 0.72
   vertex 2.69 1.31 0.72
  endloop
 endfacet
 facet normal 0 0 1
  outer loop
   vertex 2.69 1.69 0.72
   vertex 2.455 1.61 0.72
   vertex 2.455 1.59 0.72
  endloop
 endfacet
 facet normal 0 0 1
  outer loop
   vertex 2.69 1.69 0.72
   vertex 2.005 1.61 0.72
   vertex 2.455 1.61 0.72
  endloop
 endfacet
 facet normal 0 0 1
  outer loop
   vertex 2.69 1.69 0.72
   vertex 1.77 1.69 0.72
   vertex 2.005 1.61 0.72
  endloop
 endfacet
 facet normal 0 0 1
  outer loop
   vertex 1.77 1.69 0.72
   vertex 2.005 1.59 0.72
   vertex 2.005 1.61 0.72
  endloop
 endfacet
 facet normal 0 1 0
  outer loop
   vertex 2.69 1.69 0.7
   vertex 1.77 1.69 0.7
   vertex 1.77 1.69 0.72
  endloop
 endfacet
 facet normal 0 1 0
  outer loop
   vertex 2.69 1.69 0.72
   vertex 2.69 1.69 0.7
   vertex 1.77 1.69 0.72
  endloop
 endfacet
 facet normal 1 0 0
  outer loop
   vertex 2.69 1.31 0.72
   vertex 2.69 1.31 0.7
   vertex 2.69 1.69 0.7
  endloop
 endfacet
 facet normal 1 -0 0
  outer loop
   vertex 2.69 1.31 0.72
   vertex 2.69 1.69 0.7
   vertex 2.69 1.69 0.72
  endloop
 endfacet
 facet normal -1 0 0
  outer loop
   vertex 1.77 1.31 0.7
   vertex 1.77 1.31 0.72
   vertex 1.77 1.69 0.72
  endloop
 endfacet
 facet normal -1 0 0
  outer loop
   vertex 1.77 1.31 0.7
   vertex 1.77 1.69 0.72
   vertex 1.77 1.69 0.7
  endloop
 endfacet
 facet normal -0 -1 0
  outer loop
   vertex 2.69 1.31 0.72
   vertex 1.77 1.31 0.72
   vertex 1.77 1.31 0.7
  endloop
 endfacet
 facet normal 0 -1 0
  outer loop
   vertex 2.69 1.31 0.7
   vertex 2.69 1.31 0.72
   vertex 1.77 1.31 0.7
  endloop
 endfacet
 facet normal 0 0 -1
  outer loop
   vertex 1.77 1.31 0.7
   vertex 2.69 1.69 0.7
   vertex 2.69 1.31 0.7
  endloop
 endfacet
 facet normal 0 0 -1
  outer loop
   vertex 1.77 1.31 0.7
   vertex 1.77 1.69 0.7
   vertex 2.69 1.69 0.7
  endloop
 endfacet
endsolid solid
