solid solid
 facet normal 0 1 0
  outer loop
   vertex 2.4 0.75 0
   vertex 2 0.75 0
   vertex 2 0.75 1.2
  endloop
 endfacet
 facet normal 0 1 -0
  outer loop
   vertex 2.4 0.75 0
   vertex 2 0.75 1.2
   vertex 2.4 0.75 1.2
  endloop
 endfacet
 facet normal -1 0 0
  outer loop
   vertex 2.4 0.75 0
   vertex 2.4 0.75 1.2
   vertex 2.4 1.15 1.2
  endloop
 endfacet
 facet normal -1 0 0
  outer loop
   vertex 2.4 0.75 0
   vertex 2.4 1.15 1.2
   vertex 2.4 1.15 0
  endloop
 endfacet
 facet normal 0 -1 0
  outer loop
   vertex 2 1.15 0
   vertex 2.4 1.15 1.2
   vertex 2 1.15 1.2
  endloop
 endfacet
 facet normal 0 -1 0
  outer loop
   vertex 2.4 1.15 0
   vertex 2.4 1.15 1.2
   vertex 2 1.15 0
  endloop
 endfacet
 facet normal 1 0 0
  outer loop
   vertex 2 0.75 1.2
   vertex 2 0.75 0
   vertex 2 1.15 0
  endloop
 endfacet
 facet normal 1 -0 0
  outer loop
   vertex 2 0.75 1.2
   vertex 2 1.15 0
   vertex 2 1.15 1.2
  endloop
 endfacet
 facet normal 0 -0 -1
  outer loop
   vertex 2.4 1.15 1.2
   vertex 2.4 0.75 1.2
   vertex 2 0.75 1.2
  endloop
 endfacet
 facet normal 0 0 -1
  outer loop
   vertex 2 1.15 1.2
   vertex 2.4 1.15 1.2
   vertex 2 0.75 1.2
  endloop
 endfacet
endsolid solid
