solid zone0
 facet normal -1 0 0
  outer loop
   vertex 0 0 0
   vertex 0 3.5 3.5
   vertex 0 3.5 0
  endloop
 endfacet
 facet normal -1 -0 0
  outer loop
   vertex 0 3.5 3.5
   vertex 0 0 0
   vertex 0 0 3.5
  endloop
 endfacet
 facet normal -0 0 1
  outer loop
   vertex 1.4 2.45 3.5
   vertex 2.6 1.35 3.5
   vertex 2.6 2.45 3.5
  endloop
 endfacet
 facet normal 0 0 1
  outer loop
   vertex 2.6 1.35 3.5
   vertex 1.4 2.45 3.5
   vertex 1.4 1.35 3.5
  endloop
 endfacet
 facet normal -0 0 1
  outer loop
   vertex 1.4 3.35 3.5
   vertex 2.6 2.55 3.5
   vertex 2.6 3.35 3.5
  endloop
 endfacet
 facet normal 0 0 1
  outer loop
   vertex 2.6 2.55 3.5
   vertex 1.4 3.35 3.5
   vertex 1.4 2.55 3.5
  endloop
 endfacet
 facet normal 0 0 1
  outer loop
   vertex 2.6 3.35 3.5
   vertex 4 3.5 3.5
   vertex 2.6 3.45 3.5
  endloop
 endfacet
 facet normal 0 0 1
  outer loop
   vertex 4 3.5 3.5
   vertex 1.4 3.45 3.5
   vertex 2.6 3.45 3.5
  endloop
 endfacet
 facet normal 0 0 1
  outer loop
   vertex 0 3.5 3.5
   vertex 1.4 3.35 3.5
   vertex 1.4 3.45 3.5
  endloop
 endfacet
 facet normal 0 0 1
  outer loop
   vertex 1.4 3.35 3.5
   vertex 0 3.5 3.5
   vertex 1.4 2.55 3.5
  endloop
 endfacet
 facet normal 0 0 1
  outer loop
   vertex 1.4 2.55 3.5
   vertex 0 3.5 3.5
   vertex 1.4 2.45 3.5
  endloop
 endfacet
 facet normal 0 0 1
  outer loop
   vertex 1.4 2.45 3.5
   vertex 0 3.5 3.5
   vertex 1.4 1.35 3.5
  endloop
 endfacet
 facet normal 0 0 1
  outer loop
   vertex 0 0 3.5
   vertex 1.4 1.35 3.5
   vertex 0 3.5 3.5
  endloop
 endfacet
 facet normal -0 0 1
  outer loop
   vertex 0 3.5 3.5
   vertex 1.4 3.45 3.5
   vertex 4 3.5 3.5
  endloop
 endfacet
 facet normal 0 0 1
  outer loop
   vertex 2.6 2.55 3.5
   vertex 4 3.5 3.5
   vertex 2.6 3.35 3.5
  endloop
 endfacet
 facet normal 0 0 1
  outer loop
   vertex 2.6 2.45 3.5
   vertex 4 3.5 3.5
   vertex 2.6 2.55 3.5
  endloop
 endfacet
 facet normal 0 0 1
  outer loop
   vertex 2.6 1.35 3.5
   vertex 4 3.5 3.5
   vertex 2.6 2.45 3.5
  endloop
 endfacet
 facet normal 0 0 1
  outer loop
   vertex 4 3.5 3.5
   vertex 2.6 1.35 3.5
   vertex 4 0 3.5
  endloop
 endfacet
 facet normal -0 0 1
  outer loop
   vertex 2.6 1.25 3.5
   vertex 4 0 3.5
   vertex 2.6 1.35 3.5
  endloop
 endfacet
 facet normal -0 0 1
  outer loop
   vertex 1.4 1.25 3.5
   vertex 4 0 3.5
   vertex 2.6 1.25 3.5
  endloop
 endfacet
 facet normal 0 0 1
  outer loop
   vertex 1.4 1.25 3.5
   vertex 0 0 3.5
   vertex 4 0 3.5
  endloop
 endfacet
 facet normal 0 0 1
  outer loop
   vertex 1.4 1.35 3.5
   vertex 0 0 3.5
   vertex 1.4 1.25 3.5
  endloop
 endfacet
 facet normal 1 0 0
  outer loop
   vertex 4 3.5 3.5
   vertex 4 2.73 2.6
   vertex 4 3.5 0
  endloop
 endfacet
 facet normal 1 0 0
  outer loop
   vertex 4 3.5 3.5
   vertex 4 2.09 3.34
   vertex 4 2.73 2.6
  endloop
 endfacet
 facet normal 1 0 0
  outer loop
   vertex 4 3.5 3.5
   vertex 4 1.91 3.34
   vertex 4 2.09 3.34
  endloop
 endfacet
 facet normal 1 0 0
  outer loop
   vertex 4 1.91 3.34
   vertex 4 1.23 2.6
   vertex 4 1.91 3.16
  endloop
 endfacet
 facet normal 1 -0 0
  outer loop
   vertex 4 0 3.5
   vertex 4 1.91 3.34
   vertex 4 3.5 3.5
  endloop
 endfacet
 facet normal 1 0 0
  outer loop
   vertex 4 0 3.5
   vertex 4 1.23 2.6
   vertex 4 1.91 3.34
  endloop
 endfacet
 facet normal 1 0 0
  outer loop
   vertex 4 0 0
   vertex 4 1.23 2.6
   vertex 4 0 3.5
  endloop
 endfacet
 facet normal 1 0 0
  outer loop
   vertex 4 1.23 2.6
   vertex 4 0 0
   vertex 4 1.23 0
  endloop
 endfacet
 facet normal 1 0 0
  outer loop
   vertex 4 3.5 0
   vertex 4 2.73 2.6
   vertex 4 2.73 0
  endloop
 endfacet
 facet normal 1 -0 0
  outer loop
   vertex 4 2.09 3.16
   vertex 4 2.73 2.6
   vertex 4 2.09 3.34
  endloop
 endfacet
 facet normal 1 -0 0
  outer loop
   vertex 4 1.91 3.16
   vertex 4 2.73 2.6
   vertex 4 2.09 3.16
  endloop
 endfacet
 facet normal 1 0 0
  outer loop
   vertex 4 2.73 2.6
   vertex 4 1.91 3.16
   vertex 4 1.23 2.6
  endloop
 endfacet
 facet normal 0 0 -1
  outer loop
   vertex 4 0 0
   vertex 3.24 1.23 0
   vertex 4 1.23 0
  endloop
 endfacet
 facet normal 0 0 -1
  outer loop
   vertex 2.4 1.15 0
   vertex 3.24 1.23 0
   vertex 2.4 0.75 0
  endloop
 endfacet
 facet normal 0 0 -1
  outer loop
   vertex 4 0 0
   vertex 2.4 0.75 0
   vertex 3.24 1.23 0
  endloop
 endfacet
 facet normal 0 0 -1
  outer loop
   vertex 4 0 0
   vertex 2 0.75 0
   vertex 2.4 0.75 0
  endloop
 endfacet
 facet normal 0 0 -1
  outer loop
   vertex 2 0.75 0
   vertex 1.77 1.3 0
   vertex 2 1.15 0
  endloop
 endfacet
 facet normal 0 0 -1
  outer loop
   vertex 2 0.75 0
   vertex 1.53 1.3 0
   vertex 1.77 1.3 0
  endloop
 endfacet
 facet normal -0 0 -1
  outer loop
   vertex 1.53 1.3 0
   vertex 0 0 0
   vertex 1.53 1.7 0
  endloop
 endfacet
 facet normal -0 0 -1
  outer loop
   vertex 2 0.75 0
   vertex 0 0 0
   vertex 1.53 1.3 0
  endloop
 endfacet
 facet normal 0 0 -1
  outer loop
   vertex 0 0 0
   vertex 2 0.75 0
   vertex 4 0 0
  endloop
 endfacet
 facet normal 0 0 -1
  outer loop
   vertex 3.24 2.73 0
   vertex 4 3.5 0
   vertex 4 2.73 0
  endloop
 endfacet
 facet normal -0 0 -1
  outer loop
   vertex 3.24 1.23 0
   vertex 2.4 1.15 0
   vertex 3.24 2.73 0
  endloop
 endfacet
 facet normal 0 0 -1
  outer loop
   vertex 1.77 1.7 0
   vertex 2.4 1.15 0
   vertex 2 1.15 0
  endloop
 endfacet
 facet normal 0 0 -1
  outer loop
   vertex 1.77 1.7 0
   vertex 2 1.15 0
   vertex 1.77 1.3 0
  endloop
 endfacet
 facet normal 0 0 -1
  outer loop
   vertex 2.4 1.15 0
   vertex 1.77 1.7 0
   vertex 3.24 2.73 0
  endloop
 endfacet
 facet normal 0 0 -1
  outer loop
   vertex 0 3.5 0
   vertex 3.24 2.73 0
   vertex 1.77 1.7 0
  endloop
 endfacet
 facet normal 0 0 -1
  outer loop
   vertex 0 3.5 0
   vertex 1.77 1.7 0
   vertex 1.53 1.7 0
  endloop
 endfacet
 facet normal 0 0 -1
  outer loop
   vertex 3.24 2.73 0
   vertex 0 3.5 0
   vertex 4 3.5 0
  endloop
 endfacet
 facet normal 0 0 -1
  outer loop
   vertex 0 3.5 0
   vertex 1.53 1.7 0
   vertex 0 0 0
  endloop
 endfacet
 facet normal 0 -1 0
  outer loop
   vertex 0 0 0
   vertex 4 0 3.5
   vertex 0 0 3.5
  endloop
 endfacet
 facet normal 0 -1 -0
  outer loop
   vertex 4 0 3.5
   vertex 0 0 0
   vertex 4 0 0
  endloop
 endfacet
 facet normal 0 1 0
  outer loop
   vertex 1.52 3.5 0.42001
   vertex 4 3.5 3.5
   vertex 3.08 3.5 0.42001
  endloop
 endfacet
 facet normal 0 1 -0
  outer loop
   vertex 4 3.5 0
   vertex 3.08 3.5 0.42001
   vertex 4 3.5 3.5
  endloop
 endfacet
 facet normal 0 1 0
  outer loop
   vertex 3.08 3.5 0.065
   vertex 4 3.5 0
   vertex 1.52 3.5 0.065
  endloop
 endfacet
 facet normal 0 1 0
  outer loop
   vertex 3.08 3.5 0.42001
   vertex 4 3.5 0
   vertex 3.08 3.5 0.065
  endloop
 endfacet
 facet normal 0 1 0
  outer loop
   vertex 4 3.5 3.5
   vertex 1.52 3.5 0.42001
   vertex 0 3.5 3.5
  endloop
 endfacet
 facet normal 0 1 0
  outer loop
   vertex 0 3.5 0
   vertex 1.52 3.5 0.42001
   vertex 1.52 3.5 0.065
  endloop
 endfacet
 facet normal 0 1 0
  outer loop
   vertex 1.52 3.5 0.42001
   vertex 0 3.5 0
   vertex 0 3.5 3.5
  endloop
 endfacet
 facet normal 0 1 0
  outer loop
   vertex 0 3.5 0
   vertex 1.52 3.5 0.065
   vertex 4 3.5 0
  endloop
 endfacet
 facet normal 1 -0 0
  outer loop
   vertex 2 0.75 1.2
   vertex 2 1.15 0
   vertex 2 1.15 1.2
  endloop
 endfacet
 facet normal 1 0 0
  outer loop
   vertex 2 1.15 0
   vertex 2 0.75 1.2
   vertex 2 0.75 0
  endloop
 endfacet
 facet normal 0 0 -1
  outer loop
   vertex 2 0.75 1.2
   vertex 2.4 1.15 1.2
   vertex 2.4 0.75 1.2
  endloop
 endfacet
 facet normal -0 0 -1
  outer loop
   vertex 2.4 1.15 1.2
   vertex 2 0.75 1.2
   vertex 2 1.15 1.2
  endloop
 endfacet
 facet normal -1 0 0
  outer loop
   vertex 2.4 0.75 0
   vertex 2.4 1.15 1.2
   vertex 2.4 1.15 0
  endloop
 endfacet
 facet normal -1 -0 0
  outer loop
   vertex 2.4 1.15 1.2
   vertex 2.4 0.75 0
   vertex 2.4 0.75 1.2
  endloop
 endfacet
 facet normal 0 -1 0
  outer loop
   vertex 2 1.15 0
   vertex 2.4 1.15 1.2
   vertex 2 1.15 1.2
  endloop
 endfacet
 facet normal 0 -1 -0
  outer loop
   vertex 2.4 1.15 1.2
   vertex 2 1.15 0
   vertex 2.4 1.15 0
  endloop
 endfacet
 facet normal 0 1 -0
  outer loop
   vertex 2.4 0.75 0
   vertex 2 0.75 1.2
   vertex 2.4 0.75 1.2
  endloop
 endfacet
 facet normal 0 1 0
  outer loop
   vertex 2 0.75 1.2
   vertex 2.4 0.75 0
   vertex 2 0.75 0
  endloop
 endfacet
 facet normal 1 -0 0
  outer loop
   vertex 3.24 1.23 2.6
   vertex 3.24 2.73 0
   vertex 3.24 2.73 2.6
  endloop
 endfacet
 facet normal 1 0 0
  outer loop
   vertex 3.24 2.73 0
   vertex 3.24 1.23 2.6
   vertex 3.24 1.23 0
  endloop
 endfacet
 facet normal 0 0 -1
  outer loop
   vertex 3.24 1.23 2.6
   vertex 4 2.73 2.6
   vertex 4 1.23 2.6
  endloop
 endfacet
 facet normal -0 0 -1
  outer loop
   vertex 4 2.73 2.6
   vertex 3.24 1.23 2.6
   vertex 3.24 2.73 2.6
  endloop
 endfacet
 facet normal 0 -1 0
  outer loop
   vertex 3.24 2.73 0
   vertex 4 2.73 2.6
   vertex 3.24 2.73 2.6
  endloop
 endfacet
 facet normal 0 -1 -0
  outer loop
   vertex 4 2.73 2.6
   vertex 3.24 2.73 0
   vertex 4 2.73 0
  endloop
 endfacet
 facet normal 0 1 -0
  outer loop
   vertex 4 1.23 0
   vertex 3.24 1.23 2.6
   vertex 4 1.23 2.6
  endloop
 endfacet
 facet normal 0 1 0
  outer loop
   vertex 3.24 1.23 2.6
   vertex 4 1.23 0
   vertex 3.24 1.23 0
  endloop
 endfacet
 facet normal 1 -0 0
  outer loop
   vertex 2.74 1.91 3.34
   vertex 2.74 2.09 3.16
   vertex 2.74 2.09 3.34
  endloop
 endfacet
 facet normal 1 0 0
  outer loop
   vertex 2.74 2.09 3.16
   vertex 2.74 1.91 3.34
   vertex 2.74 1.91 3.16
  endloop
 endfacet
 facet normal 0 0 -1
  outer loop
   vertex 2.74 1.91 3.34
   vertex 4 2.09 3.34
   vertex 4 1.91 3.34
  endloop
 endfacet
 facet normal -0 0 -1
  outer loop
   vertex 4 2.09 3.34
   vertex 2.74 1.91 3.34
   vertex 2.74 2.09 3.34
  endloop
 endfacet
 facet normal 0 -1 0
  outer loop
   vertex 2.74 2.09 3.16
   vertex 4 2.09 3.34
   vertex 2.74 2.09 3.34
  endloop
 endfacet
 facet normal 0 -1 -0
  outer loop
   vertex 4 2.09 3.34
   vertex 2.74 2.09 3.16
   vertex 4 2.09 3.16
  endloop
 endfacet
 facet normal -0 0 1
  outer loop
   vertex 2.74 2.09 3.16
   vertex 4 1.91 3.16
   vertex 4 2.09 3.16
  endloop
 endfacet
 facet normal 0 0 1
  outer loop
   vertex 4 1.91 3.16
   vertex 2.74 2.09 3.16
   vertex 2.74 1.91 3.16
  endloop
 endfacet
 facet normal 0 1 -0
  outer loop
   vertex 4 1.91 3.16
   vertex 2.74 1.91 3.34
   vertex 4 1.91 3.34
  endloop
 endfacet
 facet normal 0 1 0
  outer loop
   vertex 2.74 1.91 3.34
   vertex 4 1.91 3.16
   vertex 2.74 1.91 3.16
  endloop
 endfacet
 facet normal 1 -0 0
  outer loop
   vertex 1.53 1.3 0.42
   vertex 1.53 1.7 0
   vertex 1.53 1.7 0.42
  endloop
 endfacet
 facet normal 1 0 0
  outer loop
   vertex 1.53 1.7 0
   vertex 1.53 1.3 0.42
   vertex 1.53 1.3 0
  endloop
 endfacet
 facet normal 0 0 -1
  outer loop
   vertex 1.53 1.3 0.42
   vertex 1.77 1.7 0.42
   vertex 1.77 1.3 0.42
  endloop
 endfacet
 facet normal -0 0 -1
  outer loop
   vertex 1.77 1.7 0.42
   vertex 1.53 1.3 0.42
   vertex 1.53 1.7 0.42
  endloop
 endfacet
 facet normal -1 0 0
  outer loop
   vertex 1.77 1.3 0
   vertex 1.77 1.7 0.42
   vertex 1.77 1.7 0
  endloop
 endfacet
 facet normal -1 -0 0
  outer loop
   vertex 1.77 1.7 0.42
   vertex 1.77 1.3 0
   vertex 1.77 1.3 0.42
  endloop
 endfacet
 facet normal 0 -1 0
  outer loop
   vertex 1.53 1.7 0
   vertex 1.77 1.7 0.42
   vertex 1.53 1.7 0.42
  endloop
 endfacet
 facet normal 0 -1 -0
  outer loop
   vertex 1.77 1.7 0.42
   vertex 1.53 1.7 0
   vertex 1.77 1.7 0
  endloop
 endfacet
 facet normal 0 1 -0
  outer loop
   vertex 1.77 1.3 0
   vertex 1.53 1.3 0.42
   vertex 1.77 1.3 0.42
  endloop
 endfacet
 facet normal 0 1 0
  outer loop
   vertex 1.53 1.3 0.42
   vertex 1.77 1.3 0
   vertex 1.53 1.3 0
  endloop
 endfacet
 facet normal 1 -0 0
  outer loop
   vertex 1.4 3.35 3.5
   vertex 1.4 3.45 3.46
   vertex 1.4 3.45 3.5
  endloop
 endfacet
 facet normal 1 0 0
  outer loop
   vertex 1.4 3.45 3.46
   vertex 1.4 3.35 3.5
   vertex 1.4 3.35 3.46
  endloop
 endfacet
 facet normal -1 0 0
  outer loop
   vertex 2.6 3.35 3.46
   vertex 2.6 3.45 3.5
   vertex 2.6 3.45 3.46
  endloop
 endfacet
 facet normal -1 -0 0
  outer loop
   vertex 2.6 3.45 3.5
   vertex 2.6 3.35 3.46
   vertex 2.6 3.35 3.5
  endloop
 endfacet
 facet normal -0 0 1
  outer loop
   vertex 1.4 3.45 3.46
   vertex 2.6 3.35 3.46
   vertex 2.6 3.45 3.46
  endloop
 endfacet
 facet normal 0 0 1
  outer loop
   vertex 2.6 3.35 3.46
   vertex 1.4 3.45 3.46
   vertex 1.4 3.35 3.46
  endloop
 endfacet
 facet normal 0 1 -0
  outer loop
   vertex 2.6 3.35 3.46
   vertex 1.4 3.35 3.5
   vertex 2.6 3.35 3.5
  endloop
 endfacet
 facet normal 0 1 0
  outer loop
   vertex 1.4 3.35 3.5
   vertex 2.6 3.35 3.46
   vertex 1.4 3.35 3.46
  endloop
 endfacet
 facet normal 0 -1 0
  outer loop
   vertex 1.4 3.45 3.46
   vertex 2.6 3.45 3.5
   vertex 1.4 3.45 3.5
  endloop
 endfacet
 facet normal 0 -1 -0
  outer loop
   vertex 2.6 3.45 3.5
   vertex 1.4 3.45 3.46
   vertex 2.6 3.45 3.46
  endloop
 endfacet
 facet normal 1 -0 0
  outer loop
   vertex 1.4 2.45 3.5
   vertex 1.4 2.55 3.46
   vertex 1.4 2.55 3.5
  endloop
 endfacet
 facet normal 1 0 0
  outer loop
   vertex 1.4 2.55 3.46
   vertex 1.4 2.45 3.5
   vertex 1.4 2.45 3.46
  endloop
 endfacet
 facet normal -1 0 0
  outer loop
   vertex 2.6 2.45 3.46
   vertex 2.6 2.55 3.5
   vertex 2.6 2.55 3.46
  endloop
 endfacet
 facet normal -1 -0 0
  outer loop
   vertex 2.6 2.55 3.5
   vertex 2.6 2.45 3.46
   vertex 2.6 2.45 3.5
  endloop
 endfacet
 facet normal 0 -1 0
  outer loop
   vertex 1.4 2.55 3.46
   vertex 2.6 2.55 3.5
   vertex 1.4 2.55 3.5
  endloop
 endfacet
 facet normal 0 -1 -0
  outer loop
   vertex 2.6 2.55 3.5
   vertex 1.4 2.55 3.46
   vertex 2.6 2.55 3.46
  endloop
 endfacet
 facet normal -0 0 1
  outer loop
   vertex 1.4 2.55 3.46
   vertex 2.6 2.45 3.46
   vertex 2.6 2.55 3.46
  endloop
 endfacet
 facet normal 0 0 1
  outer loop
   vertex 2.6 2.45 3.46
   vertex 1.4 2.55 3.46
   vertex 1.4 2.45 3.46
  endloop
 endfacet
 facet normal 0 1 -0
  outer loop
   vertex 2.6 2.45 3.46
   vertex 1.4 2.45 3.5
   vertex 2.6 2.45 3.5
  endloop
 endfacet
 facet normal 0 1 0
  outer loop
   vertex 1.4 2.45 3.5
   vertex 2.6 2.45 3.46
   vertex 1.4 2.45 3.46
  endloop
 endfacet
 facet normal 1 -0 0
  outer loop
   vertex 1.4 1.25 3.5
   vertex 1.4 1.35 3.46
   vertex 1.4 1.35 3.5
  endloop
 endfacet
 facet normal 1 0 0
  outer loop
   vertex 1.4 1.35 3.46
   vertex 1.4 1.25 3.5
   vertex 1.4 1.25 3.46
  endloop
 endfacet
 facet normal -1 0 0
  outer loop
   vertex 2.6 1.25 3.46
   vertex 2.6 1.35 3.5
   vertex 2.6 1.35 3.46
  endloop
 endfacet
 facet normal -1 -0 0
  outer loop
   vertex 2.6 1.35 3.5
   vertex 2.6 1.25 3.46
   vertex 2.6 1.25 3.5
  endloop
 endfacet
 facet normal 0 -1 0
  outer loop
   vertex 1.4 1.35 3.46
   vertex 2.6 1.35 3.5
   vertex 1.4 1.35 3.5
  endloop
 endfacet
 facet normal 0 -1 -0
  outer loop
   vertex 2.6 1.35 3.5
   vertex 1.4 1.35 3.46
   vertex 2.6 1.35 3.46
  endloop
 endfacet
 facet normal -0 0 1
  outer loop
   vertex 1.4 1.35 3.46
   vertex 2.6 1.25 3.46
   vertex 2.6 1.35 3.46
  endloop
 endfacet
 facet normal 0 0 1
  outer loop
   vertex 2.6 1.25 3.46
   vertex 1.4 1.35 3.46
   vertex 1.4 1.25 3.46
  endloop
 endfacet
 facet normal 0 1 -0
  outer loop
   vertex 2.6 1.25 3.46
   vertex 1.4 1.25 3.5
   vertex 2.6 1.25 3.5
  endloop
 endfacet
 facet normal 0 1 0
  outer loop
   vertex 1.4 1.25 3.5
   vertex 2.6 1.25 3.46
   vertex 1.4 1.25 3.46
  endloop
 endfacet
 facet normal -1 0 0
  outer loop
   vertex 1.52 3.5 0.065
   vertex 1.52 3.6 0.42001
   vertex 1.52 3.6 0.065
  endloop
 endfacet
 facet normal -1 -0 0
  outer loop
   vertex 1.52 3.6 0.42001
   vertex 1.52 3.5 0.065
   vertex 1.52 3.5 0.42001
  endloop
 endfacet
 facet normal -0 0 1
  outer loop
   vertex 1.52 3.6 0.42001
   vertex 3.08 3.5 0.42001
   vertex 3.08 3.6 0.42001
  endloop
 endfacet
 facet normal 0 0 1
  outer loop
   vertex 3.08 3.5 0.42001
   vertex 1.52 3.6 0.42001
   vertex 1.52 3.5 0.42001
  endloop
 endfacet
 facet normal 1 -0 0
  outer loop
   vertex 3.08 3.5 0.42001
   vertex 3.08 3.6 0.065
   vertex 3.08 3.6 0.42001
  endloop
 endfacet
 facet normal 1 0 0
  outer loop
   vertex 3.08 3.6 0.065
   vertex 3.08 3.5 0.42001
   vertex 3.08 3.5 0.065
  endloop
 endfacet
 facet normal 0 1 -0
  outer loop
   vertex 3.08 3.6 0.065
   vertex 1.52 3.6 0.42001
   vertex 3.08 3.6 0.42001
  endloop
 endfacet
 facet normal 0 1 0
  outer loop
   vertex 1.52 3.6 0.42001
   vertex 3.08 3.6 0.065
   vertex 1.52 3.6 0.065
  endloop
 endfacet
 facet normal 0 0 -1
  outer loop
   vertex 1.52 3.5 0.065
   vertex 3.08 3.6 0.065
   vertex 3.08 3.5 0.065
  endloop
 endfacet
 facet normal -0 0 -1
  outer loop
   vertex 3.08 3.6 0.065
   vertex 1.52 3.5 0.065
   vertex 1.52 3.6 0.065
  endloop
 endfacet
endsolid zone0
