solid solid
 facet normal 0 1 0
  outer loop
   vertex 1.53 1.3 0.42
   vertex 1.77 1.3 0
   vertex 1.53 1.3 0
  endloop
 endfacet
 facet normal 0 1 0
  outer loop
   vertex 1.77 1.3 0.42
   vertex 1.77 1.3 0
   vertex 1.53 1.3 0.42
  endloop
 endfacet
 facet normal 0 -0 -1
  outer loop
   vertex 1.77 1.7 0.42
   vertex 1.77 1.3 0.42
   vertex 1.53 1.3 0.42
  endloop
 endfacet
 facet normal 0 0 -1
  outer loop
   vertex 1.53 1.7 0.42
   vertex 1.77 1.7 0.42
   vertex 1.53 1.3 0.42
  endloop
 endfacet
 facet normal 0 -1 0
  outer loop
   vertex 1.53 1.7 0
   vertex 1.77 1.7 0.42
   vertex 1.53 1.7 0.42
  endloop
 endfacet
 facet normal 0 -1 0
  outer loop
   vertex 1.77 1.7 0
   vertex 1.77 1.7 0.42
   vertex 1.53 1.7 0
  endloop
 endfacet
 facet normal 1 0 0
  outer loop
   vertex 1.53 1.3 0.42
   vertex 1.53 1.3 0
   vertex 1.53 1.7 0
  endloop
 endfacet
 facet normal 1 -0 0
  outer loop
   vertex 1.53 1.3 0.42
   vertex 1.53 1.7 0
   vertex 1.53 1.7 0.42
  endloop
 endfacet
 facet normal -1 0 0
  outer loop
   vertex 1.77 1.3 0
   vertex 1.77 1.3 0.42
   vertex 1.77 1.7 0.42
  endloop
 endfacet
 facet normal -1 0 0
  outer loop
   vertex 1.77 1.3 0
   vertex 1.77 1.7 0.42
   vertex 1.77 1.7 0
  endloop
 endfacet
endsolid solid
