solid solid
 facet normal 0 0 1
  outer loop
   vertex 4 0 3.5
   vertex 1.4 1.25 3.5
   vertex 0 0 3.5
  endloop
 endfacet
 facet normal 0 0 1
  outer loop
   vertex 4 0 3.5
   vertex 2.6 1.25 3.5
   vertex 1.4 1.25 3.5
  endloop
 endfacet
 facet normal 0 0 1
  outer loop
   vertex 2.6 1.35 3.5
   vertex 2.6 1.25 3.5
   vertex 4 0 3.5
  endloop
 endfacet
 facet normal 0 0 1
  outer loop
   vertex 4 3.5 3.5
   vertex 2.6 1.35 3.5
   vertex 4 0 3.5
  endloop
 endfacet
 facet normal 0 0 1
  outer loop
   vertex 4 3.5 3.5
   vertex 2.6 2.45 3.5
   vertex 2.6 1.35 3.5
  endloop
 endfacet
 facet normal -0 0 1
  outer loop
   vertex 2.6 2.55 3.5
   vertex 2.6 2.45 3.5
   vertex 4 3.5 3.5
  endloop
 endfacet
 facet normal -0 0 1
  outer loop
   vertex 2.6 3.35 3.5
   vertex 2.6 2.55 3.5
   vertex 4 3.5 3.5
  endloop
 endfacet
 facet normal 0 0 1
  outer loop
   vertex 4 3.5 3.5
   vertex 2.6 3.45 3.5
   vertex 2.6 3.35 3.5
  endloop
 endfacet
 facet normal 0 0 1
  outer loop
   vertex 4 3.5 3.5
   vertex 1.4 3.45 3.5
   vertex 2.6 3.45 3.5
  endloop
 endfacet
 facet normal 0 0 1
  outer loop
   vertex 4 3.5 3.5
   vertex 0 3.5 3.5
   vertex 1.4 3.45 3.5
  endloop
 endfacet
 facet normal 0 0 1
  outer loop
   vertex 1.4 3.45 3.5
   vertex 0 3.5 3.5
   vertex 1.4 3.35 3.5
  endloop
 endfacet
 facet normal 0 0 1
  outer loop
   vertex 2.6 3.35 3.5
   vertex 1.4 3.35 3.5
   vertex 2.6 2.55 3.5
  endloop
 endfacet
 facet normal 0 0 1
  outer loop
   vertex 2.6 2.55 3.5
   vertex 1.4 3.35 3.5
   vertex 1.4 2.55 3.5
  endloop
 endfacet
 facet normal 0 0 1
  outer loop
   vertex 1.4 3.35 3.5
   vertex 0 3.5 3.5
   vertex 1.4 2.55 3.5
  endloop
 endfacet
 facet normal 0 0 1
  outer loop
   vertex 0 3.5 3.5
   vertex 1.4 2.45 3.5
   vertex 1.4 2.55 3.5
  endloop
 endfacet
 facet normal -0 0 1
  outer loop
   vertex 1.4 2.45 3.5
   vertex 2.6 1.35 3.5
   vertex 2.6 2.45 3.5
  endloop
 endfacet
 facet normal 0 0 1
  outer loop
   vertex 2.6 1.35 3.5
   vertex 1.4 2.45 3.5
   vertex 1.4 1.35 3.5
  endloop
 endfacet
 facet normal 0 0 1
  outer loop
   vertex 1.4 2.45 3.5
   vertex 0 3.5 3.5
   vertex 1.4 1.35 3.5
  endloop
 endfacet
 facet normal 0 0 1
  outer loop
   vertex 0 3.5 3.5
   vertex 0 0 3.5
   vertex 1.4 1.35 3.5
  endloop
 endfacet
 facet normal 0 0 1
  outer loop
   vertex 1.4 1.35 3.5
   vertex 0 0 3.5
   vertex 1.4 1.25 3.5
  endloop
 endfacet
endsolid solid
