solid solid
 facet normal 0 0 -1
  outer loop
   vertex 0 3.5 0
   vertex 1.53 1.7 0
   vertex 0 0 0
  endloop
 endfacet
 facet normal 0 0 -1
  outer loop
   vertex 0 3.5 0
   vertex 1.77 1.7 0
   vertex 1.53 1.7 0
  endloop
 endfacet
 facet normal 0 0 -1
  outer loop
   vertex 0 3.5 0
   vertex 3.24 2.73 0
   vertex 1.77 1.7 0
  endloop
 endfacet
 facet normal 0 0 -1
  outer loop
   vertex 0 3.5 0
   vertex 4 3.5 0
   vertex 3.24 2.73 0
  endloop
 endfacet
 facet normal 0 -0 -1
  outer loop
   vertex 4 3.5 0
   vertex 4 2.73 0
   vertex 3.24 2.73 0
  endloop
 endfacet
 facet normal 0 0 -1
  outer loop
   vertex 1.77 1.7 0
   vertex 3.24 2.73 0
   vertex 2.4 1.15 0
  endloop
 endfacet
 facet normal 0 -0 -1
  outer loop
   vertex 3.24 2.73 0
   vertex 3.24 1.23 0
   vertex 2.4 1.15 0
  endloop
 endfacet
 facet normal 0 0 -1
  outer loop
   vertex 1.77 1.7 0
   vertex 2.4 1.15 0
   vertex 2 1.15 0
  endloop
 endfacet
 facet normal 0 0 -1
  outer loop
   vertex 1.77 1.7 0
   vertex 2 1.15 0
   vertex 1.77 1.3 0
  endloop
 endfacet
 facet normal 0 0 -1
  outer loop
   vertex 1.77 1.3 0
   vertex 2 1.15 0
   vertex 2 0.75 0
  endloop
 endfacet
 facet normal 0 0 -1
  outer loop
   vertex 1.53 1.3 0
   vertex 1.77 1.3 0
   vertex 2 0.75 0
  endloop
 endfacet
 facet normal 0 -0 -1
  outer loop
   vertex 1.53 1.7 0
   vertex 1.53 1.3 0
   vertex 0 0 0
  endloop
 endfacet
 facet normal 0 0 -1
  outer loop
   vertex 0 0 0
   vertex 2 0.75 0
   vertex 4 0 0
  endloop
 endfacet
 facet normal 0 0 -1
  outer loop
   vertex 2 0.75 0
   vertex 2.4 0.75 0
   vertex 4 0 0
  endloop
 endfacet
 facet normal 0 0 -1
  outer loop
   vertex 2.4 0.75 0
   vertex 3.24 1.23 0
   vertex 4 0 0
  endloop
 endfacet
 facet normal 0 0 -1
  outer loop
   vertex 3.24 1.23 0
   vertex 4 1.23 0
   vertex 4 0 0
  endloop
 endfacet
 facet normal 0 0 -1
  outer loop
   vertex 2.4 1.15 0
   vertex 3.24 1.23 0
   vertex 2.4 0.75 0
  endloop
 endfacet
 facet normal 0 0 -1
  outer loop
   vertex 0 0 0
   vertex 1.53 1.3 0
   vertex 2 0.75 0
  endloop
 endfacet
endsolid solid
