solid solid
 facet normal 0 1 -0
  outer loop
   vertex 4.525 4 1.05
   vertex 4.375 4 1.3
   vertex 4.525 4 1.3
  endloop
 endfacet
 facet normal 0 1 0
  outer loop
   vertex 4.525 4 1.05
   vertex 4.375 4 1.05
   vertex 4.375 4 1.3
  endloop
 endfacet
 facet normal -1 0 0
  outer loop
   vertex 4.375 3.85 1.05
   vertex 4.375 4 1.3
   vertex 4.375 4 1.05
  endloop
 endfacet
 facet normal -1 0 0
  outer loop
   vertex 4.375 3.85 1.05
   vertex 4.375 3.85 1.3
   vertex 4.375 4 1.3
  endloop
 endfacet
 facet normal 0 -1 0
  outer loop
   vertex 4.375 3.85 1.05
   vertex 4.525 3.85 1.3
   vertex 4.375 3.85 1.3
  endloop
 endfacet
 facet normal 0 -1 0
  outer loop
   vertex 4.525 3.85 1.05
   vertex 4.525 3.85 1.3
   vertex 4.375 3.85 1.05
  endloop
 endfacet
 facet normal 1 0 0
  outer loop
   vertex 4.525 3.85 1.3
   vertex 4.525 3.85 1.05
   vertex 4.525 4 1.05
  endloop
 endfacet
 facet normal 1 -0 0
  outer loop
   vertex 4.525 3.85 1.3
   vertex 4.525 4 1.05
   vertex 4.525 4 1.3
  endloop
 endfacet
 facet normal 0 0 1
  outer loop
   vertex 4.525 4 1.05
   vertex 4.525 3.85 1.05
   vertex 4.6 3.85 1.05
  endloop
 endfacet
 facet normal 0 0 1
  outer loop
   vertex 4.6 4 1.05
   vertex 4.525 4 1.05
   vertex 4.6 3.85 1.05
  endloop
 endfacet
 facet normal 0 0 1
  outer loop
   vertex 4.525 4 1.3
   vertex 4.375 4 1.3
   vertex 4.525 3.85 1.3
  endloop
 endfacet
 facet normal 0 0 1
  outer loop
   vertex 4.525 3.85 1.3
   vertex 4.375 4 1.3
   vertex 4.375 3.85 1.3
  endloop
 endfacet
 facet normal 1 -0 0
  outer loop
   vertex 4.6 3.85 1.05
   vertex 4.6 4 0.75
   vertex 4.6 4 1.05
  endloop
 endfacet
 facet normal 1 0 0
  outer loop
   vertex 4.6 3.85 1.05
   vertex 4.6 3.85 0.55
   vertex 4.6 4 0.75
  endloop
 endfacet
 facet normal 1 0 0
  outer loop
   vertex 4.6 4 0.75
   vertex 4.6 3.85 0.55
   vertex 4.6 4 0.45001
  endloop
 endfacet
 facet normal 1 0 0
  outer loop
   vertex 4.6 3.6 0.45001
   vertex 4.6 4 0.45001
   vertex 4.6 3.85 0.55
  endloop
 endfacet
 facet normal 1 -0 0
  outer loop
   vertex 4.6 3.5 0.55
   vertex 4.6 3.6 0.45001
   vertex 4.6 3.85 0.55
  endloop
 endfacet
 facet normal 1 0 0
  outer loop
   vertex 4.6 3.5 0.55
   vertex 4.6 3.6 0.35
   vertex 4.6 3.6 0.45001
  endloop
 endfacet
 facet normal 1 0 0
  outer loop
   vertex 4.6 3.5 0.55
   vertex 4.6 3.5 0.05
   vertex 4.6 3.6 0.35
  endloop
 endfacet
 facet normal 1 0 0
  outer loop
   vertex 4.6 3.6 0.35
   vertex 4.6 3.5 0.05
   vertex 4.6 3.6 0.05
  endloop
 endfacet
 facet normal 0 -1 0
  outer loop
   vertex 4.6 3.5 0.05
   vertex 4.6 3.5 0.55
   vertex 4.5 3.5 0.05
  endloop
 endfacet
 facet normal 0 -1 0
  outer loop
   vertex 4.5 3.5 0.05
   vertex 4.6 3.5 0.55
   vertex 4.5 3.5 0.55
  endloop
 endfacet
 facet normal 0 -0 -1
  outer loop
   vertex 4.6 3.6 0.05
   vertex 4.6 3.5 0.05
   vertex 4.5 3.5 0.05
  endloop
 endfacet
 facet normal 0 0 -1
  outer loop
   vertex 4.5 3.6 0.05
   vertex 4.6 3.6 0.05
   vertex 4.5 3.5 0.05
  endloop
 endfacet
 facet normal 0 1 0
  outer loop
   vertex 4.6 3.6 0.35
   vertex 4.6 3.6 0.05
   vertex 4.5 3.6 0.35
  endloop
 endfacet
 facet normal 0 1 0
  outer loop
   vertex 4.5 3.6 0.35
   vertex 4.6 3.6 0.05
   vertex 4.5 3.6 0.05
  endloop
 endfacet
 facet normal -1 0 -0
  outer loop
   vertex 4.5 3.6 0.35
   vertex 4.5 3.6 0.05
   vertex 4.5 3.5 0.05
  endloop
 endfacet
 facet normal -1 0 0
  outer loop
   vertex 4.5 3.5 0.05
   vertex 4.5 3.5 0.55
   vertex 4.5 3.6 0.35
  endloop
 endfacet
 facet normal -1 0 -0
  outer loop
   vertex 4.3 3.6 0.35
   vertex 4.3 3.6 0.05
   vertex 4.3 3.5 0.05
  endloop
 endfacet
 facet normal -1 0 0
  outer loop
   vertex 4.3 3.5 0.55
   vertex 4.3 3.6 0.35
   vertex 4.3 3.5 0.05
  endloop
 endfacet
 facet normal -1 0 0
  outer loop
   vertex 4.3 3.6 0.35
   vertex 4.3 3.5 0.55
   vertex 4.3 3.6 0.45001
  endloop
 endfacet
 facet normal -1 0 0
  outer loop
   vertex 4.3 3.5 0.55
   vertex 4.3 3.85 0.55
   vertex 4.3 3.6 0.45001
  endloop
 endfacet
 facet normal -1 0 0
  outer loop
   vertex 4.3 3.6 0.45001
   vertex 4.3 3.85 0.55
   vertex 4.3 4 0.45001
  endloop
 endfacet
 facet normal 0 -1 0
  outer loop
   vertex 4.3 3.5 0.05
   vertex 4.4 3.5 0.55
   vertex 4.3 3.5 0.55
  endloop
 endfacet
 facet normal 0 -1 0
  outer loop
   vertex 4.4 3.5 0.05
   vertex 4.4 3.5 0.55
   vertex 4.3 3.5 0.05
  endloop
 endfacet
 facet normal 0 0 -1
  outer loop
   vertex 4.3 3.6 0.05
   vertex 4.4 3.6 0.05
   vertex 4.3 3.5 0.05
  endloop
 endfacet
 facet normal 0 -0 -1
  outer loop
   vertex 4.4 3.6 0.05
   vertex 4.4 3.5 0.05
   vertex 4.3 3.5 0.05
  endloop
 endfacet
 facet normal 1 -0 0
  outer loop
   vertex 4.4 3.5 0.55
   vertex 4.4 3.6 0.45001
   vertex 4.4 3.85 0.55
  endloop
 endfacet
 facet normal 1 0 0
  outer loop
   vertex 4.4 3.6 0.35
   vertex 4.4 3.5 0.05
   vertex 4.4 3.6 0.05
  endloop
 endfacet
 facet normal -1 0 0
  outer loop
   vertex 4.5 3.6 0.35
   vertex 4.5 3.5 0.55
   vertex 4.5 3.6 0.45001
  endloop
 endfacet
 facet normal -1 0 0
  outer loop
   vertex 4.5 3.5 0.55
   vertex 4.5 3.85 0.55
   vertex 4.5 3.6 0.45001
  endloop
 endfacet
 facet normal -1 0 0
  outer loop
   vertex 4.5 3.6 0.45001
   vertex 4.5 3.85 0.55
   vertex 4.5 3.85 0.45001
  endloop
 endfacet
 facet normal 0 0 1
  outer loop
   vertex 4.6 3.85 0.55
   vertex 4.5 3.85 0.55
   vertex 4.6 3.5 0.55
  endloop
 endfacet
 facet normal 0 0 1
  outer loop
   vertex 4.5 3.85 0.55
   vertex 4.5 3.5 0.55
   vertex 4.6 3.5 0.55
  endloop
 endfacet
 facet normal 0 0 1
  outer loop
   vertex 4.4 3.85 0.55
   vertex 4.3 3.85 0.55
   vertex 4.4 3.5 0.55
  endloop
 endfacet
 facet normal 0 0 1
  outer loop
   vertex 4.3 3.85 0.55
   vertex 4.3 3.5 0.55
   vertex 4.4 3.5 0.55
  endloop
 endfacet
 facet normal -1 0 0
  outer loop
   vertex 4.3 3.85 0.55
   vertex 4.3 4 0.75
   vertex 4.3 4 0.45001
  endloop
 endfacet
 facet normal -1 0 0
  outer loop
   vertex 4.3 3.85 0.55
   vertex 4.3 3.85 1.05
   vertex 4.3 4 0.75
  endloop
 endfacet
 facet normal -1 0 0
  outer loop
   vertex 4.3 3.85 1.05
   vertex 4.3 4 1.05
   vertex 4.3 4 0.75
  endloop
 endfacet
 facet normal 1 0 0
  outer loop
   vertex 4.4 3.5 0.55
   vertex 4.4 3.5 0.05
   vertex 4.4 3.6 0.35
  endloop
 endfacet
 facet normal 1 0 0
  outer loop
   vertex 4.4 3.5 0.55
   vertex 4.4 3.6 0.35
   vertex 4.4 3.6 0.45001
  endloop
 endfacet
 facet normal 0 1 0
  outer loop
   vertex 4.4 3.6 0.35
   vertex 4.4 3.6 0.05
   vertex 4.3 3.6 0.35
  endloop
 endfacet
 facet normal 0 1 0
  outer loop
   vertex 4.3 3.6 0.35
   vertex 4.4 3.6 0.05
   vertex 4.3 3.6 0.05
  endloop
 endfacet
 facet normal 0 1 0
  outer loop
   vertex 4.6 4 0.75
   vertex 4.3 4 0.75
   vertex 4.375 4 1.05
  endloop
 endfacet
 facet normal 0 1 0
  outer loop
   vertex 4.3 4 0.75
   vertex 4.3 4 1.05
   vertex 4.375 4 1.05
  endloop
 endfacet
 facet normal 0 1 0
  outer loop
   vertex 4.6 4 0.75
   vertex 4.375 4 1.05
   vertex 4.525 4 1.05
  endloop
 endfacet
 facet normal 0 1 -0
  outer loop
   vertex 4.6 4 0.75
   vertex 4.525 4 1.05
   vertex 4.6 4 1.05
  endloop
 endfacet
 facet normal 0 0 1
  outer loop
   vertex 4.375 4 1.05
   vertex 4.3 4 1.05
   vertex 4.375 3.85 1.05
  endloop
 endfacet
 facet normal 0 0 1
  outer loop
   vertex 4.3 4 1.05
   vertex 4.3 3.85 1.05
   vertex 4.375 3.85 1.05
  endloop
 endfacet
 facet normal 0 -1 0
  outer loop
   vertex 4.3 3.85 0.55
   vertex 4.375 3.85 1.05
   vertex 4.3 3.85 1.05
  endloop
 endfacet
 facet normal 0 -1 0
  outer loop
   vertex 4.3 3.85 0.55
   vertex 4.4 3.85 0.55
   vertex 4.375 3.85 1.05
  endloop
 endfacet
 facet normal 0 -1 0
  outer loop
   vertex 4.4 3.85 0.55
   vertex 4.525 3.85 1.05
   vertex 4.375 3.85 1.05
  endloop
 endfacet
 facet normal 0 -1 0
  outer loop
   vertex 4.4 3.85 0.55
   vertex 4.5 3.85 0.55
   vertex 4.525 3.85 1.05
  endloop
 endfacet
 facet normal 0 -1 0
  outer loop
   vertex 4.5 3.85 0.55
   vertex 4.6 3.85 0.55
   vertex 4.525 3.85 1.05
  endloop
 endfacet
 facet normal 0 -1 0
  outer loop
   vertex 4.6 3.85 0.55
   vertex 4.6 3.85 1.05
   vertex 4.525 3.85 1.05
  endloop
 endfacet
 facet normal 1 0 0
  outer loop
   vertex 4.4 3.6 0.45001
   vertex 4.4 3.85 0.45001
   vertex 4.4 3.85 0.55
  endloop
 endfacet
 facet normal 0 -1 0
  outer loop
   vertex 4.4 3.85 0.45001
   vertex 4.5 3.85 0.55
   vertex 4.4 3.85 0.55
  endloop
 endfacet
 facet normal 0 -1 0
  outer loop
   vertex 4.4 3.85 0.45001
   vertex 4.5 3.85 0.45001
   vertex 4.5 3.85 0.55
  endloop
 endfacet
endsolid solid
