solid solid
 facet normal -1 0 0
  outer loop
   vertex 4.375 1.85 1.05
   vertex 4.375 1.85 1.3
   vertex 4.375 2 1.3
  endloop
 endfacet
 facet normal -1 0 0
  outer loop
   vertex 4.375 1.85 1.05
   vertex 4.375 2 1.3
   vertex 4.375 2 1.05
  endloop
 endfacet
 facet normal 0 0 1
  outer loop
   vertex 4.375 2 1.05
   vertex 4.3 2 1.05
   vertex 4.375 1.85 1.05
  endloop
 endfacet
 facet normal 0 0 1
  outer loop
   vertex 4.525 2 1.3
   vertex 4.375 2 1.3
   vertex 4.525 1.85 1.3
  endloop
 endfacet
 facet normal 0 0 1
  outer loop
   vertex 4.525 1.85 1.3
   vertex 4.375 2 1.3
   vertex 4.375 1.85 1.3
  endloop
 endfacet
 facet normal 0 0 1
  outer loop
   vertex 4.3 2 1.05
   vertex 4.3 1.85 1.05
   vertex 4.375 1.85 1.05
  endloop
 endfacet
 facet normal -1 0 0
  outer loop
   vertex 4.3 1.85001 0.75
   vertex 4.3 1.85 1.05
   vertex 4.3 2 1.05
  endloop
 endfacet
 facet normal -1 0 -0
  outer loop
   vertex 4.3 2 1.05
   vertex 4.3 2 0.55
   vertex 4.3 1.85001 0.75
  endloop
 endfacet
 facet normal -1 0 0
  outer loop
   vertex 4.3 1.85001 0.45001
   vertex 4.3 1.85001 0.75
   vertex 4.3 2 0.55
  endloop
 endfacet
 facet normal -1 0 0
  outer loop
   vertex 4.3 1.85001 0.45001
   vertex 4.3 2 0.55
   vertex 4.3 2.20001 0.45001
  endloop
 endfacet
 facet normal -1 0 0
  outer loop
   vertex 4.3 2 0.55
   vertex 4.3 2.3 0.55
   vertex 4.3 2.20001 0.45001
  endloop
 endfacet
 facet normal -1 0 0
  outer loop
   vertex 4.3 2.3 0.55
   vertex 4.3 2.20001 0.35
   vertex 4.3 2.20001 0.45001
  endloop
 endfacet
 facet normal -1 0 0
  outer loop
   vertex 4.3 2.3 0.05
   vertex 4.3 2.20001 0.35
   vertex 4.3 2.3 0.55
  endloop
 endfacet
 facet normal -1 0 0
  outer loop
   vertex 4.3 2.2 0.05
   vertex 4.3 2.20001 0.35
   vertex 4.3 2.3 0.05
  endloop
 endfacet
 facet normal 0 0 1
  outer loop
   vertex 4.4 2.3 0.55
   vertex 4.3 2.3 0.55
   vertex 4.4 2 0.55
  endloop
 endfacet
 facet normal 0 0 1
  outer loop
   vertex 4.3 2.3 0.55
   vertex 4.3 2 0.55
   vertex 4.4 2 0.55
  endloop
 endfacet
 facet normal 0 1 0
  outer loop
   vertex 4.4 2.3 0.55
   vertex 4.4 2.3 0.05
   vertex 4.3 2.3 0.55
  endloop
 endfacet
 facet normal 0 1 0
  outer loop
   vertex 4.3 2.3 0.55
   vertex 4.4 2.3 0.05
   vertex 4.3 2.3 0.05
  endloop
 endfacet
 facet normal 0 1 0
  outer loop
   vertex 4.6 2.3 0.55
   vertex 4.6 2.3 0.05
   vertex 4.5 2.3 0.55
  endloop
 endfacet
 facet normal 0 1 0
  outer loop
   vertex 4.5 2.3 0.55
   vertex 4.6 2.3 0.05
   vertex 4.5 2.3 0.05
  endloop
 endfacet
 facet normal -1 0 0
  outer loop
   vertex 4.5 2.3 0.05
   vertex 4.5 2.20001 0.35
   vertex 4.5 2.3 0.55
  endloop
 endfacet
 facet normal -1 0 0
  outer loop
   vertex 4.5 2.2 0.05
   vertex 4.5 2.20001 0.35
   vertex 4.5 2.3 0.05
  endloop
 endfacet
 facet normal -1 0 0
  outer loop
   vertex 4.5 2.20001 0.35
   vertex 4.5 2.20001 0.45001
   vertex 4.5 2.3 0.55
  endloop
 endfacet
 facet normal 0 0 1
  outer loop
   vertex 4.6 2.3 0.55
   vertex 4.5 2.3 0.55
   vertex 4.6 2 0.55
  endloop
 endfacet
 facet normal 0 0 1
  outer loop
   vertex 4.5 2.3 0.55
   vertex 4.5 2 0.55
   vertex 4.6 2 0.55
  endloop
 endfacet
 facet normal -1 0 0
  outer loop
   vertex 4.5 2 0.55
   vertex 4.5 2.3 0.55
   vertex 4.5 2.20001 0.45001
  endloop
 endfacet
 facet normal -1 0 0
  outer loop
   vertex 4.5 2 0.45001
   vertex 4.5 2 0.55
   vertex 4.5 2.20001 0.45001
  endloop
 endfacet
 facet normal 0 1 0
  outer loop
   vertex 4.6 2 1.05
   vertex 4.6 2 0.55
   vertex 4.525 2 1.05
  endloop
 endfacet
 facet normal 0 1 0
  outer loop
   vertex 4.6 2 0.55
   vertex 4.5 2 0.55
   vertex 4.525 2 1.05
  endloop
 endfacet
 facet normal 0 1 0
  outer loop
   vertex 4.525 2 1.05
   vertex 4.5 2 0.55
   vertex 4.375 2 1.05
  endloop
 endfacet
 facet normal 0 1 0
  outer loop
   vertex 4.375 2 1.05
   vertex 4.5 2 0.55
   vertex 4.4 2 0.55
  endloop
 endfacet
 facet normal 0 1 0
  outer loop
   vertex 4.4 2 0.55
   vertex 4.3 2 0.55
   vertex 4.375 2 1.05
  endloop
 endfacet
 facet normal 0 1 0
  outer loop
   vertex 4.375 2 1.05
   vertex 4.3 2 0.55
   vertex 4.3 2 1.05
  endloop
 endfacet
 facet normal 0 1 0
  outer loop
   vertex 4.525 2 1.05
   vertex 4.375 2 1.05
   vertex 4.375 2 1.3
  endloop
 endfacet
 facet normal 0 1 -0
  outer loop
   vertex 4.525 2 1.05
   vertex 4.375 2 1.3
   vertex 4.525 2 1.3
  endloop
 endfacet
 facet normal 0 -1 0
  outer loop
   vertex 4.375 1.85 1.05
   vertex 4.525 1.85 1.3
   vertex 4.375 1.85 1.3
  endloop
 endfacet
 facet normal 0 -1 0
  outer loop
   vertex 4.525 1.85 1.05
   vertex 4.525 1.85 1.3
   vertex 4.375 1.85 1.05
  endloop
 endfacet
 facet normal 0 0 1
  outer loop
   vertex 4.6 2 1.05
   vertex 4.525 2 1.05
   vertex 4.6 1.85 1.05
  endloop
 endfacet
 facet normal 0 0 1
  outer loop
   vertex 4.525 2 1.05
   vertex 4.525 1.85 1.05
   vertex 4.6 1.85 1.05
  endloop
 endfacet
 facet normal 0 -1 0
  outer loop
   vertex 4.3 1.85 0.75
   vertex 4.375 1.85 1.05
   vertex 4.3 1.85 1.05
  endloop
 endfacet
 facet normal 0 -1 0
  outer loop
   vertex 4.3 1.85 0.75
   vertex 4.525 1.85 1.05
   vertex 4.375 1.85 1.05
  endloop
 endfacet
 facet normal 0 -1 0
  outer loop
   vertex 4.6 1.85 0.75
   vertex 4.525 1.85 1.05
   vertex 4.3 1.85 0.75
  endloop
 endfacet
 facet normal 0 -1 0
  outer loop
   vertex 4.6 1.85 0.75
   vertex 4.6 1.85 1.05
   vertex 4.525 1.85 1.05
  endloop
 endfacet
 facet normal 1 -0 0
  outer loop
   vertex 4.6 1.85 1.05
   vertex 4.6 1.85001 0.75
   vertex 4.6 2 1.05
  endloop
 endfacet
 facet normal 1 0 0
  outer loop
   vertex 4.6 2 1.05
   vertex 4.6 1.85001 0.75
   vertex 4.6 2 0.55
  endloop
 endfacet
 facet normal 1 0 0
  outer loop
   vertex 4.6 1.85001 0.75
   vertex 4.6 1.85001 0.45001
   vertex 4.6 2 0.55
  endloop
 endfacet
 facet normal 1 0 0
  outer loop
   vertex 4.525 1.85 1.3
   vertex 4.525 1.85 1.05
   vertex 4.525 2 1.05
  endloop
 endfacet
 facet normal 1 -0 0
  outer loop
   vertex 4.525 1.85 1.3
   vertex 4.525 2 1.05
   vertex 4.525 2 1.3
  endloop
 endfacet
 facet normal 1 0 0
  outer loop
   vertex 4.6 2.20001 0.35
   vertex 4.6 2.2 0.05
   vertex 4.6 2.3 0.05
  endloop
 endfacet
 facet normal 1 0 0
  outer loop
   vertex 4.6 2.3 0.55
   vertex 4.6 2.20001 0.35
   vertex 4.6 2.3 0.05
  endloop
 endfacet
 facet normal 1 0 0
  outer loop
   vertex 4.6 2.3 0.55
   vertex 4.6 2.20001 0.45001
   vertex 4.6 2.20001 0.35
  endloop
 endfacet
 facet normal 1 -0 0
  outer loop
   vertex 4.6 2 0.55
   vertex 4.6 2.20001 0.45001
   vertex 4.6 2.3 0.55
  endloop
 endfacet
 facet normal 1 0 0
  outer loop
   vertex 4.6 1.85001 0.45001
   vertex 4.6 2.20001 0.45001
   vertex 4.6 2 0.55
  endloop
 endfacet
 facet normal 1 -0 0
  outer loop
   vertex 4.4 2 0.55
   vertex 4.4 2.20001 0.45001
   vertex 4.4 2.3 0.55
  endloop
 endfacet
 facet normal 1 0 0
  outer loop
   vertex 4.4 2 0.55
   vertex 4.4 2 0.45001
   vertex 4.4 2.20001 0.45001
  endloop
 endfacet
 facet normal 1 -0 0
  outer loop
   vertex 4.4 2.20001 0.45001
   vertex 4.4 2.20001 0.35
   vertex 4.4 2.3 0.55
  endloop
 endfacet
 facet normal 1 0 0
  outer loop
   vertex 4.4 2.3 0.55
   vertex 4.4 2.20001 0.35
   vertex 4.4 2.3 0.05
  endloop
 endfacet
 facet normal 1 0 0
  outer loop
   vertex 4.4 2.20001 0.35
   vertex 4.4 2.2 0.05
   vertex 4.4 2.3 0.05
  endloop
 endfacet
 facet normal 0 1 0
  outer loop
   vertex 4.5 2 0.55
   vertex 4.5 2 0.45001
   vertex 4.4 2 0.55
  endloop
 endfacet
 facet normal 0 1 0
  outer loop
   vertex 4.5 2 0.45001
   vertex 4.4 2 0.45001
   vertex 4.4 2 0.55
  endloop
 endfacet
 facet normal 0 -0 -1
  outer loop
   vertex 4.6 2.3 0.05
   vertex 4.6 2.2 0.05
   vertex 4.5 2.2 0.05
  endloop
 endfacet
 facet normal 0 0 -1
  outer loop
   vertex 4.5 2.3 0.05
   vertex 4.6 2.3 0.05
   vertex 4.5 2.2 0.05
  endloop
 endfacet
 facet normal 0 0 -1
  outer loop
   vertex 4.3 2.3 0.05
   vertex 4.4 2.3 0.05
   vertex 4.3 2.2 0.05
  endloop
 endfacet
 facet normal 0 -0 -1
  outer loop
   vertex 4.4 2.3 0.05
   vertex 4.4 2.2 0.05
   vertex 4.3 2.2 0.05
  endloop
 endfacet
 facet normal 0 -1 0
  outer loop
   vertex 4.6 2.2 0.05
   vertex 4.6 2.2 0.35
   vertex 4.5 2.2 0.05
  endloop
 endfacet
 facet normal 0 -1 0
  outer loop
   vertex 4.5 2.2 0.05
   vertex 4.6 2.2 0.35
   vertex 4.5 2.2 0.35
  endloop
 endfacet
 facet normal 0 -1 0
  outer loop
   vertex 4.4 2.2 0.05
   vertex 4.4 2.2 0.35
   vertex 4.3 2.2 0.05
  endloop
 endfacet
 facet normal 0 -1 0
  outer loop
   vertex 4.3 2.2 0.05
   vertex 4.4 2.2 0.35
   vertex 4.3 2.2 0.35
  endloop
 endfacet
endsolid solid
