solid solid
 facet normal -1 0 0
  outer loop
   vertex 2.475 3.85 1.05
   vertex 2.475 3.85 1.3
   vertex 2.475 4 1.3
  endloop
 endfacet
 facet normal -1 0 0
  outer loop
   vertex 2.475 3.85 1.05
   vertex 2.475 4 1.3
   vertex 2.475 4 1.05
  endloop
 endfacet
 facet normal 0 1 -0
  outer loop
   vertex 2.625 4 1.05
   vertex 2.475 4 1.3
   vertex 2.625 4 1.3
  endloop
 endfacet
 facet normal 0 1 0
  outer loop
   vertex 2.625 4 1.05
   vertex 2.475 4 1.05
   vertex 2.475 4 1.3
  endloop
 endfacet
 facet normal 0 0 1
  outer loop
   vertex 2.625 4 1.3
   vertex 2.475 4 1.3
   vertex 2.625 3.85 1.3
  endloop
 endfacet
 facet normal 0 0 1
  outer loop
   vertex 2.625 3.85 1.3
   vertex 2.475 4 1.3
   vertex 2.475 3.85 1.3
  endloop
 endfacet
 facet normal 0 0 1
  outer loop
   vertex 2.475 4 1.05
   vertex 2.4 4 1.05
   vertex 2.475 3.85 1.05
  endloop
 endfacet
 facet normal 0 0 1
  outer loop
   vertex 2.4 4 1.05
   vertex 2.4 3.85 1.05
   vertex 2.475 3.85 1.05
  endloop
 endfacet
 facet normal -1 0 0
  outer loop
   vertex 2.4 4 0.75
   vertex 2.4 3.85 1.05
   vertex 2.4 4 1.05
  endloop
 endfacet
 facet normal -1 0 0
  outer loop
   vertex 2.4 3.85 0.55
   vertex 2.4 3.85 1.05
   vertex 2.4 4 0.75
  endloop
 endfacet
 facet normal -1 0 -0
  outer loop
   vertex 2.4 4 0.75
   vertex 2.4 4 0.45001
   vertex 2.4 3.85 0.55
  endloop
 endfacet
 facet normal -1 0 0
  outer loop
   vertex 2.4 3.6 0.45001
   vertex 2.4 3.85 0.55
   vertex 2.4 4 0.45001
  endloop
 endfacet
 facet normal -1 0 0
  outer loop
   vertex 2.4 3.5 0.55
   vertex 2.4 3.85 0.55
   vertex 2.4 3.6 0.45001
  endloop
 endfacet
 facet normal -1 0 0
  outer loop
   vertex 2.4 3.6 0.35
   vertex 2.4 3.5 0.55
   vertex 2.4 3.6 0.45001
  endloop
 endfacet
 facet normal -1 0 0
  outer loop
   vertex 2.4 3.5 0.05
   vertex 2.4 3.5 0.55
   vertex 2.4 3.6 0.35
  endloop
 endfacet
 facet normal -1 0 0
  outer loop
   vertex 2.4 3.5 0.05
   vertex 2.4 3.6 0.35
   vertex 2.4 3.6 0.05
  endloop
 endfacet
 facet normal 0 1 0
  outer loop
   vertex 2.5 3.6 0.35
   vertex 2.5 3.6 0.05
   vertex 2.4 3.6 0.35
  endloop
 endfacet
 facet normal 0 1 0
  outer loop
   vertex 2.4 3.6 0.35
   vertex 2.5 3.6 0.05
   vertex 2.4 3.6 0.05
  endloop
 endfacet
 facet normal 0 1 0
  outer loop
   vertex 2.6 3.6 0.35
   vertex 2.7 3.6 0.05
   vertex 2.6 3.6 0.05
  endloop
 endfacet
 facet normal 0 1 0
  outer loop
   vertex 2.7 3.6 0.35
   vertex 2.7 3.6 0.05
   vertex 2.6 3.6 0.35
  endloop
 endfacet
 facet normal 0 1 0
  outer loop
   vertex 2.4 4 0.75
   vertex 2.4 4 1.05
   vertex 2.475 4 1.05
  endloop
 endfacet
 facet normal 0 1 0
  outer loop
   vertex 2.7 4 0.75
   vertex 2.4 4 0.75
   vertex 2.475 4 1.05
  endloop
 endfacet
 facet normal 0 1 0
  outer loop
   vertex 2.7 4 0.75
   vertex 2.475 4 1.05
   vertex 2.625 4 1.05
  endloop
 endfacet
 facet normal 0 1 -0
  outer loop
   vertex 2.7 4 0.75
   vertex 2.625 4 1.05
   vertex 2.7 4 1.05
  endloop
 endfacet
 facet normal 0 -1 0
  outer loop
   vertex 2.4 3.5 0.05
   vertex 2.5 3.5 0.55
   vertex 2.4 3.5 0.55
  endloop
 endfacet
 facet normal 0 -1 0
  outer loop
   vertex 2.5 3.5 0.05
   vertex 2.5 3.5 0.55
   vertex 2.4 3.5 0.05
  endloop
 endfacet
 facet normal 0 -1 0
  outer loop
   vertex 2.7 3.5 0.05
   vertex 2.7 3.5 0.55
   vertex 2.6 3.5 0.05
  endloop
 endfacet
 facet normal 0 -1 0
  outer loop
   vertex 2.6 3.5 0.05
   vertex 2.7 3.5 0.55
   vertex 2.6 3.5 0.55
  endloop
 endfacet
 facet normal -1 0 0
  outer loop
   vertex 2.6 3.5 0.05
   vertex 2.6 3.6 0.35
   vertex 2.6 3.6 0.05
  endloop
 endfacet
 facet normal -1 0 0
  outer loop
   vertex 2.6 3.5 0.05
   vertex 2.6 3.5 0.55
   vertex 2.6 3.6 0.35
  endloop
 endfacet
 facet normal -1 0 0
  outer loop
   vertex 2.6 3.6 0.35
   vertex 2.6 3.5 0.55
   vertex 2.6 3.6 0.45001
  endloop
 endfacet
 facet normal -1 0 0
  outer loop
   vertex 2.6 3.5 0.55
   vertex 2.6 3.85 0.55
   vertex 2.6 3.6 0.45001
  endloop
 endfacet
 facet normal -1 0 0
  outer loop
   vertex 2.6 3.6 0.45001
   vertex 2.6 3.85 0.55
   vertex 2.6 3.85 0.45001
  endloop
 endfacet
 facet normal 0 0 1
  outer loop
   vertex 2.7 3.85 0.55
   vertex 2.6 3.85 0.55
   vertex 2.7 3.5 0.55
  endloop
 endfacet
 facet normal 0 0 1
  outer loop
   vertex 2.6 3.85 0.55
   vertex 2.6 3.5 0.55
   vertex 2.7 3.5 0.55
  endloop
 endfacet
 facet normal 0 0 1
  outer loop
   vertex 2.5 3.85 0.55
   vertex 2.4 3.85 0.55
   vertex 2.5 3.5 0.55
  endloop
 endfacet
 facet normal 0 0 1
  outer loop
   vertex 2.4 3.85 0.55
   vertex 2.4 3.5 0.55
   vertex 2.5 3.5 0.55
  endloop
 endfacet
 facet normal 0 -1 0
  outer loop
   vertex 2.7 3.85 0.55
   vertex 2.7 3.85 1.05
   vertex 2.625 3.85 1.05
  endloop
 endfacet
 facet normal 0 -1 0
  outer loop
   vertex 2.6 3.85 0.55
   vertex 2.7 3.85 0.55
   vertex 2.625 3.85 1.05
  endloop
 endfacet
 facet normal 0 -1 0
  outer loop
   vertex 2.5 3.85 0.55
   vertex 2.6 3.85 0.55
   vertex 2.625 3.85 1.05
  endloop
 endfacet
 facet normal 0 -1 0
  outer loop
   vertex 2.5 3.85 0.55
   vertex 2.625 3.85 1.05
   vertex 2.475 3.85 1.05
  endloop
 endfacet
 facet normal 0 -1 0
  outer loop
   vertex 2.4 3.85 0.55
   vertex 2.5 3.85 0.55
   vertex 2.475 3.85 1.05
  endloop
 endfacet
 facet normal 0 -1 0
  outer loop
   vertex 2.4 3.85 0.55
   vertex 2.475 3.85 1.05
   vertex 2.4 3.85 1.05
  endloop
 endfacet
 facet normal 1 0 0
  outer loop
   vertex 2.7 3.6 0.35
   vertex 2.7 3.5 0.05
   vertex 2.7 3.6 0.05
  endloop
 endfacet
 facet normal 1 0 0
  outer loop
   vertex 2.7 3.5 0.55
   vertex 2.7 3.5 0.05
   vertex 2.7 3.6 0.35
  endloop
 endfacet
 facet normal 1 0 0
  outer loop
   vertex 2.7 3.6 0.45001
   vertex 2.7 3.5 0.55
   vertex 2.7 3.6 0.35
  endloop
 endfacet
 facet normal 1 -0 0
  outer loop
   vertex 2.7 3.5 0.55
   vertex 2.7 3.6 0.45001
   vertex 2.7 3.85 0.55
  endloop
 endfacet
 facet normal 1 0 0
  outer loop
   vertex 2.7 3.6 0.45001
   vertex 2.7 4 0.45001
   vertex 2.7 3.85 0.55
  endloop
 endfacet
 facet normal 1 0 0
  outer loop
   vertex 2.7 4 0.75
   vertex 2.7 3.85 0.55
   vertex 2.7 4 0.45001
  endloop
 endfacet
 facet normal 1 0 0
  outer loop
   vertex 2.7 3.85 1.05
   vertex 2.7 3.85 0.55
   vertex 2.7 4 0.75
  endloop
 endfacet
 facet normal 1 -0 0
  outer loop
   vertex 2.7 3.85 1.05
   vertex 2.7 4 0.75
   vertex 2.7 4 1.05
  endloop
 endfacet
 facet normal 1 0 0
  outer loop
   vertex 2.625 3.85 1.3
   vertex 2.625 3.85 1.05
   vertex 2.625 4 1.05
  endloop
 endfacet
 facet normal 1 -0 0
  outer loop
   vertex 2.625 3.85 1.3
   vertex 2.625 4 1.05
   vertex 2.625 4 1.3
  endloop
 endfacet
 facet normal 0 -1 0
  outer loop
   vertex 2.625 3.85 1.05
   vertex 2.625 3.85 1.3
   vertex 2.475 3.85 1.05
  endloop
 endfacet
 facet normal 0 -1 0
  outer loop
   vertex 2.475 3.85 1.05
   vertex 2.625 3.85 1.3
   vertex 2.475 3.85 1.3
  endloop
 endfacet
 facet normal 0 0 1
  outer loop
   vertex 2.625 4 1.05
   vertex 2.625 3.85 1.05
   vertex 2.7 3.85 1.05
  endloop
 endfacet
 facet normal 0 0 1
  outer loop
   vertex 2.7 4 1.05
   vertex 2.625 4 1.05
   vertex 2.7 3.85 1.05
  endloop
 endfacet
 facet normal 0 -1 0
  outer loop
   vertex 2.5 3.85 0.45001
   vertex 2.6 3.85 0.55
   vertex 2.5 3.85 0.55
  endloop
 endfacet
 facet normal 0 -1 0
  outer loop
   vertex 2.5 3.85 0.45001
   vertex 2.6 3.85 0.45001
   vertex 2.6 3.85 0.55
  endloop
 endfacet
 facet normal 1 0 0
  outer loop
   vertex 2.5 3.6 0.45001
   vertex 2.5 3.85 0.45001
   vertex 2.5 3.85 0.55
  endloop
 endfacet
 facet normal 1 -0 0
  outer loop
   vertex 2.5 3.5 0.55
   vertex 2.5 3.6 0.45001
   vertex 2.5 3.85 0.55
  endloop
 endfacet
 facet normal 1 0 0
  outer loop
   vertex 2.5 3.5 0.55
   vertex 2.5 3.6 0.35
   vertex 2.5 3.6 0.45001
  endloop
 endfacet
 facet normal 1 0 0
  outer loop
   vertex 2.5 3.5 0.55
   vertex 2.5 3.5 0.05
   vertex 2.5 3.6 0.35
  endloop
 endfacet
 facet normal 1 0 0
  outer loop
   vertex 2.5 3.6 0.35
   vertex 2.5 3.5 0.05
   vertex 2.5 3.6 0.05
  endloop
 endfacet
 facet normal 0 0 -1
  outer loop
   vertex 2.4 3.6 0.05
   vertex 2.5 3.6 0.05
   vertex 2.4 3.5 0.05
  endloop
 endfacet
 facet normal 0 -0 -1
  outer loop
   vertex 2.5 3.6 0.05
   vertex 2.5 3.5 0.05
   vertex 2.4 3.5 0.05
  endloop
 endfacet
 facet normal 0 0 -1
  outer loop
   vertex 2.6 3.6 0.05
   vertex 2.7 3.6 0.05
   vertex 2.6 3.5 0.05
  endloop
 endfacet
 facet normal 0 -0 -1
  outer loop
   vertex 2.7 3.6 0.05
   vertex 2.7 3.5 0.05
   vertex 2.6 3.5 0.05
  endloop
 endfacet
endsolid solid
