solid solid
 facet normal 0 0 1
  outer loop
   vertex 5 3.125 1.13
   vertex 4 3.125 1.13
   vertex 5 3.075 1.13
  endloop
 endfacet
 facet normal 0 1 0
  outer loop
   vertex 5 3.125 1.13
   vertex 5 3.125 0.78
   vertex 4 3.125 1.13
  endloop
 endfacet
 facet normal 0 0 1
  outer loop
   vertex 5 3.075 1.13
   vertex 4 3.125 1.13
   vertex 4 3.075 1.13
  endloop
 endfacet
 facet normal 0 1 0
  outer loop
   vertex 5 3.125 0.78
   vertex 4 3.125 0.78
   vertex 4 3.125 1.13
  endloop
 endfacet
 facet normal 1 -0 0
  outer loop
   vertex 5 3.075 1.13
   vertex 5 3.125 0.78
   vertex 5 3.125 1.13
  endloop
 endfacet
 facet normal 1 0 0
  outer loop
   vertex 5 3.075 1.13
   vertex 5 3.075 0.78
   vertex 5 3.125 0.78
  endloop
 endfacet
 facet normal -0 -1 0
  outer loop
   vertex 5 3.075 1.13
   vertex 4 3.075 1.13
   vertex 4 3.075 0.78
  endloop
 endfacet
 facet normal 0 -1 0
  outer loop
   vertex 5 3.075 0.78
   vertex 5 3.075 1.13
   vertex 4 3.075 0.78
  endloop
 endfacet
 facet normal -1 0 0
  outer loop
   vertex 4 3.075 0.78
   vertex 4 3.075 1.13
   vertex 4 3.125 1.13
  endloop
 endfacet
 facet normal -1 0 0
  outer loop
   vertex 4 3.075 0.78
   vertex 4 3.125 1.13
   vertex 4 3.125 0.78
  endloop
 endfacet
 facet normal 0 0 -1
  outer loop
   vertex 4 3.075 0.78
   vertex 4 3.125 0.78
   vertex 5 3.125 0.78
  endloop
 endfacet
 facet normal 0 0 -1
  outer loop
   vertex 4 3.075 0.78
   vertex 5 3.125 0.78
   vertex 5 3.075 0.78
  endloop
 endfacet
endsolid solid
