solid solid
 facet normal 0 1 0
  outer loop
   vertex 4 5.72 1.65
   vertex 2.75 5.72 1.65
   vertex 2.75 5.72 2.4
  endloop
 endfacet
 facet normal 0 1 0
  outer loop
   vertex 4 5.72 2.4
   vertex 4 5.72 1.65
   vertex 2.75 5.72 2.4
  endloop
 endfacet
 facet normal -0 0 1
  outer loop
   vertex 2.75 5.8 1.65
   vertex 4 5.72 1.65
   vertex 4 5.8 1.65
  endloop
 endfacet
 facet normal 0 0 1
  outer loop
   vertex 2.75 5.8 1.65
   vertex 2.75 5.72 1.65
   vertex 4 5.72 1.65
  endloop
 endfacet
 facet normal -1 0 -0
  outer loop
   vertex 4 5.8 2.4
   vertex 4 5.8 1.65
   vertex 4 5.72 1.65
  endloop
 endfacet
 facet normal -1 0 0
  outer loop
   vertex 4 5.72 2.4
   vertex 4 5.8 2.4
   vertex 4 5.72 1.65
  endloop
 endfacet
 facet normal 0 0 -1
  outer loop
   vertex 2.75 5.72 2.4
   vertex 4 5.8 2.4
   vertex 4 5.72 2.4
  endloop
 endfacet
 facet normal 0 0 -1
  outer loop
   vertex 2.75 5.72 2.4
   vertex 2.75 5.8 2.4
   vertex 4 5.8 2.4
  endloop
 endfacet
 facet normal 1 0 0
  outer loop
   vertex 2.75 5.72 2.4
   vertex 2.75 5.72 1.65
   vertex 2.75 5.8 1.65
  endloop
 endfacet
 facet normal 1 -0 0
  outer loop
   vertex 2.75 5.72 2.4
   vertex 2.75 5.8 1.65
   vertex 2.75 5.8 2.4
  endloop
 endfacet
endsolid solid
