solid solid
 facet normal 0 0 -1
  outer loop
   vertex 0 5.8 0
   vertex 7 5.8 0
   vertex 6.483 5.722 0
  endloop
 endfacet
 facet normal 0 0 -1
  outer loop
   vertex 6.483 5.722 0
   vertex 7 5.8 0
   vertex 6.912 5.292 0
  endloop
 endfacet
 facet normal 0 -0 -1
  outer loop
   vertex 7 5.8 0
   vertex 7 0 0
   vertex 6.912 5.292 0
  endloop
 endfacet
 facet normal 0 0 -1
  outer loop
   vertex 6.493 4.876 0
   vertex 6.912 5.292 0
   vertex 7 0 0
  endloop
 endfacet
 facet normal 0 0 -1
  outer loop
   vertex 0 5.8 0
   vertex 6.483 5.722 0
   vertex 6.069 5.301 0
  endloop
 endfacet
 facet normal 0 0 -1
  outer loop
   vertex 0 5.8 0
   vertex 6.069 5.301 0
   vertex 3.14 3.65 0
  endloop
 endfacet
 facet normal 0 0 -1
  outer loop
   vertex 3.14 3.65 0
   vertex 6.069 5.301 0
   vertex 3.86 3.65 0
  endloop
 endfacet
 facet normal 0 0 -1
  outer loop
   vertex 3.86 3.65 0
   vertex 6.069 5.301 0
   vertex 6.493 4.876 0
  endloop
 endfacet
 facet normal 0 0 -1
  outer loop
   vertex 3.86 3.65 0
   vertex 6.493 4.876 0
   vertex 3.86 3.07 0
  endloop
 endfacet
 facet normal 0 0 -1
  outer loop
   vertex 3.86 3.07 0
   vertex 6.493 4.876 0
   vertex 3.86 2.73 0
  endloop
 endfacet
 facet normal 0 0 -1
  outer loop
   vertex 3.86 2.73 0
   vertex 6.493 4.876 0
   vertex 3.86 2.15 0
  endloop
 endfacet
 facet normal 0 0 -1
  outer loop
   vertex 3.14 3.07 0
   vertex 3.86 3.07 0
   vertex 3.14 2.73 0
  endloop
 endfacet
 facet normal 0 0 -1
  outer loop
   vertex 3.14 2.73 0
   vertex 3.86 3.07 0
   vertex 3.86 2.73 0
  endloop
 endfacet
 facet normal 0 -0 -1
  outer loop
   vertex 6.493 4.876 0
   vertex 7 0 0
   vertex 3.86 2.15 0
  endloop
 endfacet
 facet normal 0 0 -1
  outer loop
   vertex 3.14 2.15 0
   vertex 3.86 2.15 0
   vertex 7 0 0
  endloop
 endfacet
 facet normal 0 0 -1
  outer loop
   vertex 0 0 0
   vertex 3.14 2.15 0
   vertex 7 0 0
  endloop
 endfacet
 facet normal 0 -0 -1
  outer loop
   vertex 0.275 2.6 0
   vertex 3.14 2.15 0
   vertex 0 0 0
  endloop
 endfacet
 facet normal 0 0 -1
  outer loop
   vertex 0 2.6 0
   vertex 0.275 2.6 0
   vertex 0 0 0
  endloop
 endfacet
 facet normal 0 0 -1
  outer loop
   vertex 0.275 2.6 0
   vertex 3.14 2.73 0
   vertex 3.14 2.15 0
  endloop
 endfacet
 facet normal 0 0 -1
  outer loop
   vertex 0.275 2.6 0
   vertex 3.14 3.07 0
   vertex 3.14 2.73 0
  endloop
 endfacet
 facet normal 0 0 -1
  outer loop
   vertex 0.275 3.2 0
   vertex 3.14 3.07 0
   vertex 0.275 2.6 0
  endloop
 endfacet
 facet normal 0 0 -1
  outer loop
   vertex 0.275 3.2 0
   vertex 3.14 3.65 0
   vertex 3.14 3.07 0
  endloop
 endfacet
 facet normal 0 0 -1
  outer loop
   vertex 0 5.8 0
   vertex 3.14 3.65 0
   vertex 0.275 3.2 0
  endloop
 endfacet
 facet normal 0 0 -1
  outer loop
   vertex 0 5.8 0
   vertex 0.275 3.2 0
   vertex 0 3.2 0
  endloop
 endfacet
endsolid solid
