solid solid
 facet normal -1 0 0
  outer loop
   vertex 0 3.2 0.93
   vertex 0 3.025 3.05
   vertex 0 5.8 3.05
  endloop
 endfacet
 facet normal -1 0 0
  outer loop
   vertex 0 3.2 0.93
   vertex 0 5.8 3.05
   vertex 0 5.8 0
  endloop
 endfacet
 facet normal -1 0 0
  outer loop
   vertex 0 3.2 0
   vertex 0 3.2 0.93
   vertex 0 5.8 0
  endloop
 endfacet
 facet normal -1 0 0
  outer loop
   vertex 0 3.025 0.93
   vertex 0 3.025 3.05
   vertex 0 3.2 0.93
  endloop
 endfacet
 facet normal -1 0 0
  outer loop
   vertex 0 2.6 0.93
   vertex 0 2.775 3.05
   vertex 0 2.775 0.93
  endloop
 endfacet
 facet normal -1 0 0
  outer loop
   vertex 0 0 3.05
   vertex 0 2.775 3.05
   vertex 0 2.6 0.93
  endloop
 endfacet
 facet normal -1 0 0
  outer loop
   vertex 0 0 0
   vertex 0 0 3.05
   vertex 0 2.6 0.93
  endloop
 endfacet
 facet normal -1 0 0
  outer loop
   vertex 0 0 0
   vertex 0 2.6 0.93
   vertex 0 2.6 0
  endloop
 endfacet
endsolid solid
