solid solid
 facet normal -1 0 0
  outer loop
   vertex 3.14 2.15 0
   vertex 3.14 2.73 0.68
   vertex 3.14 2.73 0
  endloop
 endfacet
 facet normal -1 0 0
  outer loop
   vertex 3.14 2.15 0
   vertex 3.14 2.15 0.68
   vertex 3.14 2.73 0.68
  endloop
 endfacet
 facet normal 0 0 -1
  outer loop
   vertex 2 2.88 0.08
   vertex 3.48 2.92 0.08
   vertex 3.48 2.88 0.08
  endloop
 endfacet
 facet normal 0 0 -1
  outer loop
   vertex 2 2.88 0.08
   vertex 2 2.92 0.08
   vertex 3.48 2.92 0.08
  endloop
 endfacet
 facet normal 0 0 1
  outer loop
   vertex 3.52 3.65 1.3
   vertex 3.48 2.92 1.3
   vertex 3.52 2.92 1.3
  endloop
 endfacet
 facet normal 0 0 1
  outer loop
   vertex 3.52 2.92 1.3
   vertex 3.48 2.92 1.3
   vertex 3.52 2.88 1.3
  endloop
 endfacet
 facet normal 0 0 1
  outer loop
   vertex 3.52 3.65 1.3
   vertex 3.48 3.65 1.3
   vertex 3.48 2.92 1.3
  endloop
 endfacet
 facet normal 0 0 1
  outer loop
   vertex 3.48 2.92 1.3
   vertex 2 2.92 1.3
   vertex 3.48 2.88 1.3
  endloop
 endfacet
 facet normal 0 0 1
  outer loop
   vertex 3.48 2.88 1.3
   vertex 2 2.92 1.3
   vertex 2 2.88 1.3
  endloop
 endfacet
 facet normal -1 0 0
  outer loop
   vertex 3.48 2.92 0.08
   vertex 3.48 3.07 0.68
   vertex 3.48 3.07 0.08
  endloop
 endfacet
 facet normal -1 0 0
  outer loop
   vertex 3.48 2.92 0.08
   vertex 3.48 2.92 0.68
   vertex 3.48 3.07 0.68
  endloop
 endfacet
 facet normal -1 0 0
  outer loop
   vertex 3.48 2.73 0.08
   vertex 3.48 2.88 0.68
   vertex 3.48 2.88 0.08
  endloop
 endfacet
 facet normal -1 0 0
  outer loop
   vertex 3.48 2.73 0.08
   vertex 3.48 2.73 0.68
   vertex 3.48 2.88 0.68
  endloop
 endfacet
 facet normal 0 -1 0
  outer loop
   vertex 3.48 2.15 0.72
   vertex 3.52 2.15 1.3
   vertex 3.48 2.15 1.3
  endloop
 endfacet
 facet normal 0 -1 0
  outer loop
   vertex 3.52 2.15 0.72
   vertex 3.52 2.15 1.3
   vertex 3.48 2.15 0.72
  endloop
 endfacet
 facet normal 0 0 -1
  outer loop
   vertex 3.52 2.88 0.68
   vertex 3.86 2.73 0.68
   vertex 3.52 2.73 0.68
  endloop
 endfacet
 facet normal 0 0 -1
  outer loop
   vertex 3.52 2.88 0.68
   vertex 5 2.88 0.68
   vertex 3.86 2.73 0.68
  endloop
 endfacet
 facet normal 0 0 -1
  outer loop
   vertex 3.86 2.73 0.68
   vertex 5 2.15 0.68
   vertex 3.86 2.15 0.68
  endloop
 endfacet
 facet normal 0 0 -1
  outer loop
   vertex 3.86 2.73 0.68
   vertex 5 2.88 0.68
   vertex 5 2.15 0.68
  endloop
 endfacet
 facet normal 0 0 -1
  outer loop
   vertex 3.14 3.07 0.68
   vertex 3.48 3.07 0.68
   vertex 3.48 2.92 0.68
  endloop
 endfacet
 facet normal 0 0 -1
  outer loop
   vertex 2 2.92 0.68
   vertex 3.14 3.07 0.68
   vertex 3.48 2.92 0.68
  endloop
 endfacet
 facet normal 0 0 -1
  outer loop
   vertex 2 2.92 0.68
   vertex 2 3.65 0.68
   vertex 3.14 3.07 0.68
  endloop
 endfacet
 facet normal 0 0 -1
  outer loop
   vertex 3.14 2.73 0.68
   vertex 3.48 2.88 0.68
   vertex 3.48 2.73 0.68
  endloop
 endfacet
 facet normal 0 0 -1
  outer loop
   vertex 2 2.88 0.68
   vertex 3.48 2.88 0.68
   vertex 3.14 2.73 0.68
  endloop
 endfacet
 facet normal 0 0 -1
  outer loop
   vertex 2 2.88 0.68
   vertex 3.14 2.73 0.68
   vertex 2 2.15 0.68
  endloop
 endfacet
 facet normal 0 0 -1
  outer loop
   vertex 2 2.15 0.68
   vertex 3.14 2.73 0.68
   vertex 3.14 2.15 0.68
  endloop
 endfacet
 facet normal 0 1 -0
  outer loop
   vertex 3.52 3.65 0.72
   vertex 3.48 3.65 1.3
   vertex 3.52 3.65 1.3
  endloop
 endfacet
 facet normal 0 1 0
  outer loop
   vertex 3.52 3.65 0.72
   vertex 3.48 3.65 0.72
   vertex 3.48 3.65 1.3
  endloop
 endfacet
 facet normal -0 0 1
  outer loop
   vertex 3.6 3 0.72
   vertex 3.52 2.92 0.72
   vertex 3.95 3 0.72
  endloop
 endfacet
 facet normal 0 0 1
  outer loop
   vertex 3.52 2.92 0.72
   vertex 5 2.92 0.72
   vertex 3.95 3 0.72
  endloop
 endfacet
 facet normal -0 0 1
  outer loop
   vertex 3.95 3.4 0.72
   vertex 5 2.92 0.72
   vertex 5 3.65 0.72
  endloop
 endfacet
 facet normal 0 0 1
  outer loop
   vertex 5 3.65 0.72
   vertex 3.52 3.65 0.72
   vertex 3.95 3.4 0.72
  endloop
 endfacet
 facet normal 0 0 1
  outer loop
   vertex 3.52 3.65 0.72
   vertex 3.6 3.4 0.72
   vertex 3.95 3.4 0.72
  endloop
 endfacet
 facet normal 0 0 1
  outer loop
   vertex 3.52 3.65 0.72
   vertex 3.52 2.92 0.72
   vertex 3.6 3.4 0.72
  endloop
 endfacet
 facet normal 0 0 1
  outer loop
   vertex 5 2.92 0.72
   vertex 3.95 3.4 0.72
   vertex 3.95 3 0.72
  endloop
 endfacet
 facet normal 0 0 1
  outer loop
   vertex 3.6 3.4 0.72
   vertex 3.52 2.92 0.72
   vertex 3.6 3 0.72
  endloop
 endfacet
 facet normal 1 -0 0
  outer loop
   vertex 5 2.92 0.72
   vertex 5 3.65 0.68
   vertex 5 3.65 0.72
  endloop
 endfacet
 facet normal 1 0 0
  outer loop
   vertex 5 2.92 0.72
   vertex 5 2.92 0.68
   vertex 5 3.65 0.68
  endloop
 endfacet
 facet normal 1 0 0
  outer loop
   vertex 5 2.92 1.3
   vertex 5 2.88 0.72
   vertex 5 2.92 0.72
  endloop
 endfacet
 facet normal 1 -0 0
  outer loop
   vertex 5 2.88 0.72
   vertex 5 2.92 0.68
   vertex 5 2.92 0.72
  endloop
 endfacet
 facet normal 1 -0 0
  outer loop
   vertex 5 2.88 1.3
   vertex 5 2.88 0.72
   vertex 5 2.92 1.3
  endloop
 endfacet
 facet normal 1 0 0
  outer loop
   vertex 5 2.88 0.72
   vertex 5 2.88 0.68
   vertex 5 2.92 0.68
  endloop
 endfacet
 facet normal -0 0 1
  outer loop
   vertex 3.6 2.4 0.72
   vertex 3.52 2.15 0.72
   vertex 3.95 2.4 0.72
  endloop
 endfacet
 facet normal 0 0 1
  outer loop
   vertex 5 2.15 0.72
   vertex 3.95 2.4 0.72
   vertex 3.52 2.15 0.72
  endloop
 endfacet
 facet normal 0 0 1
  outer loop
   vertex 5 2.88 0.72
   vertex 3.95 2.8 0.72
   vertex 3.95 2.4 0.72
  endloop
 endfacet
 facet normal 0 0 1
  outer loop
   vertex 5 2.88 0.72
   vertex 3.52 2.88 0.72
   vertex 3.95 2.8 0.72
  endloop
 endfacet
 facet normal 0 0 1
  outer loop
   vertex 3.52 2.88 0.72
   vertex 3.6 2.8 0.72
   vertex 3.95 2.8 0.72
  endloop
 endfacet
 facet normal 0 0 1
  outer loop
   vertex 3.52 2.88 0.72
   vertex 3.6 2.4 0.72
   vertex 3.6 2.8 0.72
  endloop
 endfacet
 facet normal 0 0 1
  outer loop
   vertex 5 2.88 0.72
   vertex 3.95 2.4 0.72
   vertex 5 2.15 0.72
  endloop
 endfacet
 facet normal 0 0 1
  outer loop
   vertex 3.52 2.88 0.72
   vertex 3.52 2.15 0.72
   vertex 3.6 2.4 0.72
  endloop
 endfacet
 facet normal 1 -0 0
  outer loop
   vertex 5 2.15 0.72
   vertex 5 2.88 0.68
   vertex 5 2.88 0.72
  endloop
 endfacet
 facet normal 1 0 0
  outer loop
   vertex 5 2.15 0.72
   vertex 5 2.15 0.68
   vertex 5 2.88 0.68
  endloop
 endfacet
 facet normal 1 0 0
  outer loop
   vertex 5 2.92 0.68
   vertex 5 2.88 0.68
   vertex 5 2.92 0.08
  endloop
 endfacet
 facet normal 1 0 0
  outer loop
   vertex 5 2.88 0.68
   vertex 5 2.88 0.08
   vertex 5 2.92 0.08
  endloop
 endfacet
 facet normal -0 1 0
  outer loop
   vertex 3.52 3.65 0.72
   vertex 5 3.65 0.72
   vertex 3.86 3.65 0.68
  endloop
 endfacet
 facet normal 0 1 0
  outer loop
   vertex 3.86 3.65 0.68
   vertex 3.86 3.65 0
   vertex 3.52 3.65 0.72
  endloop
 endfacet
 facet normal 0 1 0
  outer loop
   vertex 5 3.65 0.72
   vertex 5 3.65 0.68
   vertex 3.86 3.65 0.68
  endloop
 endfacet
 facet normal 0 1 0
  outer loop
   vertex 3.86 3.65 0
   vertex 3.48 3.65 0.72
   vertex 3.52 3.65 0.72
  endloop
 endfacet
 facet normal 0 1 0
  outer loop
   vertex 3.48 3.65 0.72
   vertex 3.86 3.65 0
   vertex 3.14 3.65 0
  endloop
 endfacet
 facet normal 0 1 0
  outer loop
   vertex 3.48 3.65 0.72
   vertex 3.14 3.65 0
   vertex 3.14 3.65 0.68
  endloop
 endfacet
 facet normal -0 1 0
  outer loop
   vertex 2 3.65 0.72
   vertex 3.48 3.65 0.72
   vertex 3.14 3.65 0.68
  endloop
 endfacet
 facet normal 0 0 1
  outer loop
   vertex 3.05 2.8 0.72
   vertex 2 2.88 0.72
   vertex 3.05 2.4 0.72
  endloop
 endfacet
 facet normal 0 0 1
  outer loop
   vertex 3.48 2.88 0.72
   vertex 2 2.88 0.72
   vertex 3.05 2.8 0.72
  endloop
 endfacet
 facet normal 0 0 1
  outer loop
   vertex 3.48 2.88 0.72
   vertex 3.4 2.8 0.72
   vertex 3.4 2.4 0.72
  endloop
 endfacet
 facet normal 0 0 1
  outer loop
   vertex 3.05 2.8 0.72
   vertex 3.4 2.8 0.72
   vertex 3.48 2.88 0.72
  endloop
 endfacet
 facet normal 0 -0 1
  outer loop
   vertex 3.48 2.15 0.72
   vertex 3.48 2.88 0.72
   vertex 3.4 2.4 0.72
  endloop
 endfacet
 facet normal -0 0 1
  outer loop
   vertex 3.05 2.4 0.72
   vertex 3.48 2.15 0.72
   vertex 3.4 2.4 0.72
  endloop
 endfacet
 facet normal 0 0 1
  outer loop
   vertex 2 2.88 0.72
   vertex 2 2.15 0.72
   vertex 3.05 2.4 0.72
  endloop
 endfacet
 facet normal -1 0 0
  outer loop
   vertex 2 2.92 0.68
   vertex 2 3.65 0.72
   vertex 2 3.65 0.68
  endloop
 endfacet
 facet normal -1 0 0
  outer loop
   vertex 2 2.92 0.68
   vertex 2 2.92 0.72
   vertex 2 3.65 0.72
  endloop
 endfacet
 facet normal -1 0 0
  outer loop
   vertex 2 2.88 0.68
   vertex 2 2.92 0.68
   vertex 2 2.92 0.08
  endloop
 endfacet
 facet normal -1 0 0
  outer loop
   vertex 2 2.88 0.68
   vertex 2 2.92 0.72
   vertex 2 2.92 0.68
  endloop
 endfacet
 facet normal -1 0 0
  outer loop
   vertex 2 2.88 0.68
   vertex 2 2.92 0.08
   vertex 2 2.88 0.08
  endloop
 endfacet
 facet normal -1 0 0
  outer loop
   vertex 2 2.88 0.68
   vertex 2 2.88 0.72
   vertex 2 2.92 0.72
  endloop
 endfacet
 facet normal -1 0 0
  outer loop
   vertex 2 2.15 0.68
   vertex 2 2.88 0.72
   vertex 2 2.88 0.68
  endloop
 endfacet
 facet normal -1 0 0
  outer loop
   vertex 2 2.15 0.68
   vertex 2 2.15 0.72
   vertex 2 2.88 0.72
  endloop
 endfacet
 facet normal -1 0 -0
  outer loop
   vertex 2 2.92 1.3
   vertex 2 2.92 0.72
   vertex 2 2.88 0.72
  endloop
 endfacet
 facet normal -1 0 0
  outer loop
   vertex 2 2.88 1.3
   vertex 2 2.92 1.3
   vertex 2 2.88 0.72
  endloop
 endfacet
 facet normal 0 0 1
  outer loop
   vertex 2 2.15 0.72
   vertex 3.48 2.15 0.72
   vertex 3.05 2.4 0.72
  endloop
 endfacet
 facet normal 0 0 1
  outer loop
   vertex 3.05 3.4 0.72
   vertex 2 3.65 0.72
   vertex 2 2.92 0.72
  endloop
 endfacet
 facet normal -0 0 1
  outer loop
   vertex 2 3.65 0.72
   vertex 3.05 3.4 0.72
   vertex 3.48 3.65 0.72
  endloop
 endfacet
 facet normal 0 -0 1
  outer loop
   vertex 3.48 2.92 0.72
   vertex 3.48 3.65 0.72
   vertex 3.4 3.4 0.72
  endloop
 endfacet
 facet normal 0 0 1
  outer loop
   vertex 3.05 3.4 0.72
   vertex 3.4 3.4 0.72
   vertex 3.48 3.65 0.72
  endloop
 endfacet
 facet normal 0 0 1
  outer loop
   vertex 3.4 3.4 0.72
   vertex 3.4 3 0.72
   vertex 3.48 2.92 0.72
  endloop
 endfacet
 facet normal -0 0 1
  outer loop
   vertex 3.05 3 0.72
   vertex 3.48 2.92 0.72
   vertex 3.4 3 0.72
  endloop
 endfacet
 facet normal 0 0 1
  outer loop
   vertex 2 2.92 0.72
   vertex 3.48 2.92 0.72
   vertex 3.05 3 0.72
  endloop
 endfacet
 facet normal 0 0 1
  outer loop
   vertex 3.05 3.4 0.72
   vertex 2 2.92 0.72
   vertex 3.05 3 0.72
  endloop
 endfacet
 facet normal 0 1 0
  outer loop
   vertex 3.14 3.65 0.68
   vertex 2 3.65 0.68
   vertex 2 3.65 0.72
  endloop
 endfacet
 facet normal 0 0 -1
  outer loop
   vertex 3.86 3.07 0.68
   vertex 5 3.65 0.68
   vertex 5 2.92 0.68
  endloop
 endfacet
 facet normal 0 0 -1
  outer loop
   vertex 5 2.92 0.68
   vertex 3.52 2.92 0.68
   vertex 3.86 3.07 0.68
  endloop
 endfacet
 facet normal 0 0 -1
  outer loop
   vertex 3.52 3.07 0.68
   vertex 3.86 3.07 0.68
   vertex 3.52 2.92 0.68
  endloop
 endfacet
 facet normal 0 0 -1
  outer loop
   vertex 3.86 3.65 0.68
   vertex 5 3.65 0.68
   vertex 3.86 3.07 0.68
  endloop
 endfacet
 facet normal 0 0 -1
  outer loop
   vertex 2 3.65 0.68
   vertex 3.14 3.65 0.68
   vertex 3.14 3.07 0.68
  endloop
 endfacet
 facet normal -0 -1 0
  outer loop
   vertex 3.48 2.15 0.72
   vertex 2 2.15 0.72
   vertex 3.14 2.15 0.68
  endloop
 endfacet
 facet normal 0 -1 0
  outer loop
   vertex 3.14 2.15 0
   vertex 3.48 2.15 0.72
   vertex 3.14 2.15 0.68
  endloop
 endfacet
 facet normal 0 -1 0
  outer loop
   vertex 3.14 2.15 0.68
   vertex 2 2.15 0.72
   vertex 2 2.15 0.68
  endloop
 endfacet
 facet normal 0 -1 0
  outer loop
   vertex 3.14 2.15 0
   vertex 3.52 2.15 0.72
   vertex 3.48 2.15 0.72
  endloop
 endfacet
 facet normal 0 -1 0
  outer loop
   vertex 3.86 2.15 0
   vertex 3.52 2.15 0.72
   vertex 3.14 2.15 0
  endloop
 endfacet
 facet normal 0 -1 0
  outer loop
   vertex 3.86 2.15 0
   vertex 3.86 2.15 0.68
   vertex 3.52 2.15 0.72
  endloop
 endfacet
 facet normal -0 -1 0
  outer loop
   vertex 5 2.15 0.72
   vertex 3.52 2.15 0.72
   vertex 3.86 2.15 0.68
  endloop
 endfacet
 facet normal 0 -1 0
  outer loop
   vertex 5 2.15 0.68
   vertex 5 2.15 0.72
   vertex 3.86 2.15 0.68
  endloop
 endfacet
 facet normal -1 0 0
  outer loop
   vertex 3.48 2.15 0.72
   vertex 3.48 2.88 1.3
   vertex 3.48 2.88 0.72
  endloop
 endfacet
 facet normal -1 0 0
  outer loop
   vertex 3.48 2.15 1.3
   vertex 3.48 2.88 1.3
   vertex 3.48 2.15 0.72
  endloop
 endfacet
 facet normal -1 0 0
  outer loop
   vertex 3.48 2.92 0.72
   vertex 3.48 3.65 1.3
   vertex 3.48 3.65 0.72
  endloop
 endfacet
 facet normal -1 0 0
  outer loop
   vertex 3.48 2.92 1.3
   vertex 3.48 3.65 1.3
   vertex 3.48 2.92 0.72
  endloop
 endfacet
 facet normal 0 0 1
  outer loop
   vertex 3.48 2.92 1.3
   vertex 3.48 2.88 1.3
   vertex 3.52 2.88 1.3
  endloop
 endfacet
 facet normal 0 0 1
  outer loop
   vertex 3.52 2.88 1.3
   vertex 3.48 2.88 1.3
   vertex 3.52 2.15 1.3
  endloop
 endfacet
 facet normal 0 0 1
  outer loop
   vertex 3.48 2.88 1.3
   vertex 3.48 2.15 1.3
   vertex 3.52 2.15 1.3
  endloop
 endfacet
 facet normal 0 0 1
  outer loop
   vertex 5 2.92 1.3
   vertex 3.52 2.92 1.3
   vertex 5 2.88 1.3
  endloop
 endfacet
 facet normal 0 0 1
  outer loop
   vertex 5 2.88 1.3
   vertex 3.52 2.92 1.3
   vertex 3.52 2.88 1.3
  endloop
 endfacet
 facet normal 1 -0 0
  outer loop
   vertex 3.52 2.15 1.3
   vertex 3.52 2.88 0.72
   vertex 3.52 2.88 1.3
  endloop
 endfacet
 facet normal 1 0 0
  outer loop
   vertex 3.52 2.15 1.3
   vertex 3.52 2.15 0.72
   vertex 3.52 2.88 0.72
  endloop
 endfacet
 facet normal 1 -0 0
  outer loop
   vertex 3.52 2.92 1.3
   vertex 3.52 3.65 0.72
   vertex 3.52 3.65 1.3
  endloop
 endfacet
 facet normal 1 0 0
  outer loop
   vertex 3.52 2.92 1.3
   vertex 3.52 2.92 0.72
   vertex 3.52 3.65 0.72
  endloop
 endfacet
 facet normal 1 -0 0
  outer loop
   vertex 3.52 2.73 0.68
   vertex 3.52 2.88 0.08
   vertex 3.52 2.88 0.68
  endloop
 endfacet
 facet normal 1 0 0
  outer loop
   vertex 3.52 2.73 0.68
   vertex 3.52 2.73 0.08
   vertex 3.52 2.88 0.08
  endloop
 endfacet
 facet normal 1 -0 0
  outer loop
   vertex 3.52 2.92 0.68
   vertex 3.52 3.07 0.08
   vertex 3.52 3.07 0.68
  endloop
 endfacet
 facet normal 1 0 0
  outer loop
   vertex 3.52 2.92 0.68
   vertex 3.52 2.92 0.08
   vertex 3.52 3.07 0.08
  endloop
 endfacet
 facet normal 0 0 -1
  outer loop
   vertex 3.48 2.88 0.08
   vertex 3.52 2.88 0.08
   vertex 3.52 2.73 0.08
  endloop
 endfacet
 facet normal 0 -0 -1
  outer loop
   vertex 3.52 2.92 0.08
   vertex 3.52 2.88 0.08
   vertex 3.48 2.88 0.08
  endloop
 endfacet
 facet normal 0 0 -1
  outer loop
   vertex 3.48 2.88 0.08
   vertex 3.52 2.73 0.08
   vertex 3.48 2.73 0.08
  endloop
 endfacet
 facet normal 0 0 -1
  outer loop
   vertex 3.48 2.92 0.08
   vertex 3.52 2.92 0.08
   vertex 3.48 2.88 0.08
  endloop
 endfacet
 facet normal 0 -0 -1
  outer loop
   vertex 3.52 3.07 0.08
   vertex 3.52 2.92 0.08
   vertex 3.48 2.92 0.08
  endloop
 endfacet
 facet normal 0 0 -1
  outer loop
   vertex 3.48 3.07 0.08
   vertex 3.52 3.07 0.08
   vertex 3.48 2.92 0.08
  endloop
 endfacet
 facet normal 0 0 -1
  outer loop
   vertex 3.52 2.88 0.08
   vertex 5 2.92 0.08
   vertex 5 2.88 0.08
  endloop
 endfacet
 facet normal 0 0 -1
  outer loop
   vertex 3.52 2.88 0.08
   vertex 3.52 2.92 0.08
   vertex 5 2.92 0.08
  endloop
 endfacet
 facet normal -0 -1 0
  outer loop
   vertex 5 2.88 1.3
   vertex 3.52 2.88 1.3
   vertex 3.52 2.88 0.72
  endloop
 endfacet
 facet normal 0 -1 0
  outer loop
   vertex 5 2.88 0.72
   vertex 5 2.88 1.3
   vertex 3.52 2.88 0.72
  endloop
 endfacet
 facet normal -0 -1 0
  outer loop
   vertex 3.48 2.88 0.68
   vertex 2 2.88 0.68
   vertex 2 2.88 0.08
  endloop
 endfacet
 facet normal 0 -1 0
  outer loop
   vertex 3.48 2.88 0.08
   vertex 3.48 2.88 0.68
   vertex 2 2.88 0.08
  endloop
 endfacet
 facet normal -0 -1 0
  outer loop
   vertex 3.48 2.88 1.3
   vertex 2 2.88 1.3
   vertex 2 2.88 0.72
  endloop
 endfacet
 facet normal 0 -1 0
  outer loop
   vertex 3.48 2.88 0.72
   vertex 3.48 2.88 1.3
   vertex 2 2.88 0.72
  endloop
 endfacet
 facet normal -0 -1 0
  outer loop
   vertex 5 2.88 0.68
   vertex 3.52 2.88 0.68
   vertex 3.52 2.88 0.08
  endloop
 endfacet
 facet normal 0 -1 0
  outer loop
   vertex 5 2.88 0.08
   vertex 5 2.88 0.68
   vertex 3.52 2.88 0.08
  endloop
 endfacet
 facet normal 0 1 0
  outer loop
   vertex 5 2.92 0.68
   vertex 5 2.92 0.08
   vertex 3.52 2.92 0.68
  endloop
 endfacet
 facet normal 0 1 0
  outer loop
   vertex 5 2.92 0.08
   vertex 3.52 2.92 0.08
   vertex 3.52 2.92 0.68
  endloop
 endfacet
 facet normal 0 1 0
  outer loop
   vertex 5 2.92 1.3
   vertex 5 2.92 0.72
   vertex 3.52 2.92 1.3
  endloop
 endfacet
 facet normal 0 1 0
  outer loop
   vertex 5 2.92 0.72
   vertex 3.52 2.92 0.72
   vertex 3.52 2.92 1.3
  endloop
 endfacet
 facet normal 0 1 0
  outer loop
   vertex 3.48 2.92 1.3
   vertex 3.48 2.92 0.72
   vertex 2 2.92 1.3
  endloop
 endfacet
 facet normal 0 1 0
  outer loop
   vertex 3.48 2.92 0.72
   vertex 2 2.92 0.72
   vertex 2 2.92 1.3
  endloop
 endfacet
 facet normal 0 1 0
  outer loop
   vertex 3.48 2.92 0.68
   vertex 3.48 2.92 0.08
   vertex 2 2.92 0.68
  endloop
 endfacet
 facet normal 0 1 0
  outer loop
   vertex 3.48 2.92 0.08
   vertex 2 2.92 0.08
   vertex 2 2.92 0.68
  endloop
 endfacet
 facet normal 1 -0 0
  outer loop
   vertex 3.86 2.15 0.68
   vertex 3.86 2.73 0
   vertex 3.86 2.73 0.68
  endloop
 endfacet
 facet normal 1 0 0
  outer loop
   vertex 3.86 2.15 0.68
   vertex 3.86 2.15 0
   vertex 3.86 2.73 0
  endloop
 endfacet
 facet normal 0 1 0
  outer loop
   vertex 3.86 2.73 0.68
   vertex 3.52 2.73 0.08
   vertex 3.52 2.73 0.68
  endloop
 endfacet
 facet normal 0 1 0
  outer loop
   vertex 3.86 2.73 0
   vertex 3.48 2.73 0.08
   vertex 3.52 2.73 0.08
  endloop
 endfacet
 facet normal 0 1 -0
  outer loop
   vertex 3.86 2.73 0
   vertex 3.52 2.73 0.08
   vertex 3.86 2.73 0.68
  endloop
 endfacet
 facet normal 0 1 0
  outer loop
   vertex 3.48 2.73 0.68
   vertex 3.48 2.73 0.08
   vertex 3.14 2.73 0.68
  endloop
 endfacet
 facet normal 0 1 0
  outer loop
   vertex 3.48 2.73 0.08
   vertex 3.14 2.73 0
   vertex 3.14 2.73 0.68
  endloop
 endfacet
 facet normal 0 1 0
  outer loop
   vertex 3.86 2.73 0
   vertex 3.14 2.73 0
   vertex 3.48 2.73 0.08
  endloop
 endfacet
 facet normal -1 0 0
  outer loop
   vertex 3.14 3.07 0
   vertex 3.14 3.65 0.68
   vertex 3.14 3.65 0
  endloop
 endfacet
 facet normal -1 0 0
  outer loop
   vertex 3.14 3.07 0
   vertex 3.14 3.07 0.68
   vertex 3.14 3.65 0.68
  endloop
 endfacet
 facet normal 1 -0 0
  outer loop
   vertex 3.86 3.07 0.68
   vertex 3.86 3.65 0
   vertex 3.86 3.65 0.68
  endloop
 endfacet
 facet normal 1 0 0
  outer loop
   vertex 3.86 3.07 0.68
   vertex 3.86 3.07 0
   vertex 3.86 3.65 0
  endloop
 endfacet
 facet normal 0 -1 0
  outer loop
   vertex 3.48 3.07 0.08
   vertex 3.48 3.07 0.68
   vertex 3.14 3.07 0.68
  endloop
 endfacet
 facet normal 0 -1 0
  outer loop
   vertex 3.14 3.07 0
   vertex 3.52 3.07 0.08
   vertex 3.48 3.07 0.08
  endloop
 endfacet
 facet normal -0 -1 0
  outer loop
   vertex 3.48 3.07 0.08
   vertex 3.14 3.07 0.68
   vertex 3.14 3.07 0
  endloop
 endfacet
 facet normal 0 -1 0
  outer loop
   vertex 3.52 3.07 0.08
   vertex 3.86 3.07 0.68
   vertex 3.52 3.07 0.68
  endloop
 endfacet
 facet normal 0 -1 0
  outer loop
   vertex 3.86 3.07 0
   vertex 3.86 3.07 0.68
   vertex 3.52 3.07 0.08
  endloop
 endfacet
 facet normal 0 -1 0
  outer loop
   vertex 3.14 3.07 0
   vertex 3.86 3.07 0
   vertex 3.52 3.07 0.08
  endloop
 endfacet
endsolid solid
