solid solid
 facet normal 0 1 0
  outer loop
   vertex 0.22999 2.775 0.93
   vertex 0 2.775 0.93
   vertex 0 2.775 3.05
  endloop
 endfacet
 facet normal 0 1 -0
  outer loop
   vertex 0.22999 2.775 0.93
   vertex 0 2.775 3.05
   vertex 0.22999 2.775 3.05
  endloop
 endfacet
 facet normal -1 0 0
  outer loop
   vertex 0.22999 2.775 3.05
   vertex 0.22999 3.025 3.05
   vertex 0.22999 2.775 0.93
  endloop
 endfacet
 facet normal -1 0 -0
  outer loop
   vertex 0.22999 3.025 3.05
   vertex 0.22999 3.025 0.93
   vertex 0.22999 2.775 0.93
  endloop
 endfacet
 facet normal 0 -1 0
  outer loop
   vertex 0 3.025 0.93
   vertex 0.22999 3.025 3.05
   vertex 0 3.025 3.05
  endloop
 endfacet
 facet normal 0 -1 0
  outer loop
   vertex 0.22999 3.025 0.93
   vertex 0.22999 3.025 3.05
   vertex 0 3.025 0.93
  endloop
 endfacet
endsolid solid
