solid solid
 facet normal 0 0 1
  outer loop
   vertex 1.5675 3.0125 3.035
   vertex 1.5675 2.7875 3.035
   vertex 1.7925 2.7875 3.035
  endloop
 endfacet
 facet normal -0 0 1
  outer loop
   vertex 1.5675 3.0125 3.035
   vertex 1.7925 2.7875 3.035
   vertex 1.7925 3.0125 3.035
  endloop
 endfacet
 facet normal -0 -1 0
  outer loop
   vertex 1.7925 2.7875 3.035
   vertex 1.5675 2.7875 3.035
   vertex 1.5675 2.7875 3.02
  endloop
 endfacet
 facet normal 0 -1 0
  outer loop
   vertex 1.7925 2.7875 3.02
   vertex 1.7925 2.7875 3.035
   vertex 1.5675 2.7875 3.02
  endloop
 endfacet
 facet normal 1 -0 0
  outer loop
   vertex 1.7925 2.7875 3.035
   vertex 1.7925 3.0125 3.02
   vertex 1.7925 3.0125 3.035
  endloop
 endfacet
 facet normal 1 0 0
  outer loop
   vertex 1.7925 2.7875 3.035
   vertex 1.7925 2.7875 3.02
   vertex 1.7925 3.0125 3.02
  endloop
 endfacet
 facet normal 0 -0 -1
  outer loop
   vertex 1.7925 3.0125 3.02
   vertex 1.7925 2.7875 3.02
   vertex 1.5675 2.7875 3.02
  endloop
 endfacet
 facet normal 0 0 -1
  outer loop
   vertex 1.5675 3.0125 3.02
   vertex 1.7925 3.0125 3.02
   vertex 1.5675 2.7875 3.02
  endloop
 endfacet
 facet normal 0 1 0
  outer loop
   vertex 1.7925 3.0125 3.02
   vertex 1.5675 3.0125 3.02
   vertex 1.5675 3.0125 3.035
  endloop
 endfacet
 facet normal 0 1 0
  outer loop
   vertex 1.7925 3.0125 3.035
   vertex 1.7925 3.0125 3.02
   vertex 1.5675 3.0125 3.035
  endloop
 endfacet
 facet normal -1 0 0
  outer loop
   vertex 1.5675 2.7875 3.02
   vertex 1.5675 3.0125 3.035
   vertex 1.5675 3.0125 3.02
  endloop
 endfacet
 facet normal -1 0 0
  outer loop
   vertex 1.5675 2.7875 3.02
   vertex 1.5675 2.7875 3.035
   vertex 1.5675 3.0125 3.035
  endloop
 endfacet
endsolid solid
